<svg xmlns="http://www.w3.org/2000/svg" xmlns:xlink="http://www.w3.org/1999/xlink" version="1.1" id="Layer_2" x="0px" y="0px" viewBox="0 0 500 500" style="enable-background:new 0 0 500 500;" xml:space="preserve">
<style type="text/css">
	.st0{fill:#FCD2B1;}
	.st1{fill:#0B4870;}
	.st2{fill:#FFE3CA;}
	.st3{fill:#FFBE55;}
</style>
<g>
	<g>
		<path class="st0" d="M464.93,399.28H35.07c-16.4,0-29.7-13.3-29.7-29.7V65.4c0-16.4,13.3-29.7,29.7-29.7H158.5    c6.39,0,12.6,2.06,17.73,5.87l21.94,16.32c5.12,3.81,11.34,5.87,17.73,5.87h249.04c16.4,0,29.7,13.3,29.7,29.7v276.12    C494.62,385.99,481.33,399.28,464.93,399.28z"/>
		<path class="st1" d="M464.93,409.06H35.07c-19.07,0-34.58-15.52-34.58-34.58V70.29c0-19.07,15.51-34.58,34.58-34.58H158.5    c7.39,0,14.72,2.43,20.64,6.84l21.94,16.32c4.25,3.16,9.51,4.9,14.81,4.9h249.04c19.07,0,34.58,15.51,34.58,34.58v276.12    C499.51,393.55,484,409.06,464.93,409.06z M35.07,45.48c-13.68,0-24.81,11.13-24.81,24.81v304.19c0,13.68,11.13,24.81,24.81,24.81    h429.85c13.68,0,24.81-11.13,24.81-24.81V98.35c0-13.68-11.13-24.81-24.81-24.81H215.89c-7.39,0-14.72-2.43-20.64-6.84    L173.3,50.39c-4.25-3.16-9.51-4.9-14.81-4.9H35.07z"/>
	</g>
	<g>
		<path class="st2" d="M463.45,459.41H36.55c-17.21,0-31.17-13.95-31.17-31.17V146.42c0-17.21,13.95-31.17,31.17-31.17h426.91    c17.21,0,31.17,13.95,31.17,31.17v281.82C494.62,445.45,480.67,459.41,463.45,459.41z"/>
	</g>
	<g>
		<g>
			<g>
				<path class="st3" d="M313.34,290.78H186.66v-70.66c0-34.93,28.42-63.34,63.34-63.34c34.92,0,63.34,28.42,63.34,63.34V290.78z       M205.98,271.46h88.05v-51.34c0-24.27-19.75-44.03-44.02-44.03s-44.03,19.75-44.03,44.03V271.46z"/>
				<path class="st1" d="M318.23,295.67H181.77v-75.55c0-37.62,30.61-68.23,68.23-68.23c37.62,0,68.23,30.61,68.23,68.23V295.67z       M191.55,285.89h116.91v-65.77c0-32.23-26.22-58.45-58.45-58.45c-32.23,0-58.45,26.22-58.45,58.45V285.89z M298.91,276.35      h-97.82v-56.23c0-26.97,21.94-48.91,48.91-48.91c26.97,0,48.91,21.94,48.91,48.91V276.35z M210.86,266.58h78.27v-46.45      c0-21.58-17.55-39.14-39.13-39.14c-21.58,0-39.14,17.56-39.14,39.14V266.58z"/>
			</g>
		</g>
		<g>
			<path class="st3" d="M299.12,389.41h-98.24c-18.02,0-32.62-14.61-32.62-32.62v-65.3c0-18.02,14.61-32.62,32.62-32.62h98.24     c18.02,0,32.62,14.61,32.62,32.62v65.3C331.74,374.8,317.14,389.41,299.12,389.41z"/>
			<path class="st1" d="M299.85,394.29h-99.7c-20.28,0-36.78-16.5-36.78-36.78v-66.76c0-20.28,16.5-36.78,36.78-36.78h99.7     c20.28,0,36.78,16.5,36.78,36.78v66.76C336.63,377.79,320.13,394.29,299.85,394.29z M200.15,263.75     c-14.89,0-27.01,12.12-27.01,27.01v66.76c0,14.89,12.12,27.01,27.01,27.01h99.7c14.89,0,27.01-12.12,27.01-27.01v-66.76     c0-14.89-12.12-27.01-27.01-27.01H200.15z"/>
		</g>
		<g>
			<path class="st3" d="M264.87,347.58l-6.59-24.67c2.68-2.33,4.45-5.66,4.45-9.49c0-7.03-5.7-12.73-12.74-12.73     c-7.03,0-12.73,5.7-12.73,12.73c0,3.83,1.78,7.16,4.45,9.49l-6.59,24.67H264.87z"/>
			<path class="st1" d="M271.24,352.47h-42.47l7.52-28.16c-2.54-3.11-3.91-6.88-3.91-10.89c0-9.72,7.91-17.62,17.62-17.62     c9.72,0,17.62,7.91,17.62,17.62c0,4.01-1.37,7.78-3.91,10.89L271.24,352.47z M241.5,342.69h17.01l-5.73-21.46l2.3-2     c1.04-0.91,2.78-2.86,2.78-5.81c0-4.33-3.52-7.85-7.85-7.85c-4.33,0-7.85,3.52-7.85,7.85c0,2.95,1.74,4.9,2.78,5.81l2.3,2     L241.5,342.69z"/>
		</g>
	</g>
	<path class="st0" d="M489.77,457.21H10.22v-38.78c0,0,146.23,15.72,239.77,15.72s239.78-15.72,239.78-15.72V457.21z"/>
	<path class="st1" d="M464.15,464.29H35.85c-19.5,0-35.36-15.86-35.36-35.36V145.72c0-19.5,15.86-35.36,35.36-35.36h428.3   c19.5,0,35.36,15.86,35.36,35.36v283.21C499.51,448.43,483.65,464.29,464.15,464.29z M35.85,120.14   c-14.11,0-25.58,11.48-25.58,25.58v283.21c0,14.11,11.48,25.59,25.58,25.59h428.3c14.11,0,25.59-11.48,25.59-25.59V145.72   c0-14.11-11.48-25.58-25.59-25.58H35.85z"/>
</g>
</svg>