<svg version="1.1" id="Layer_2" xmlns="http://www.w3.org/2000/svg" xmlns:xlink="http://www.w3.org/1999/xlink" x="0px" y="0px" viewBox="0 0 1080 1080" style="enable-background:new 0 0 1080 1080;" xml:space="preserve">
<style type="text/css">
	.st0{fill:none;stroke:#C1C1C1;stroke-miterlimit:10;stroke-dasharray:11.9518,11.9518;}
	.st1{fill:#F7F7F7;}
	.st2{fill:#D3D3D3;}
	.st3{fill:#1772AF;}
	.st4{fill:#F2F2F2;}
	.st5{fill:#0E538C;}
	.st6{fill:none;stroke:#D3D3D3;stroke-width:2;stroke-linecap:round;stroke-miterlimit:10;}
	.st7{fill:#FFD18D;}
	.st8{fill:#FFBE55;}
	.st9{fill:#43AFFF;}
	.st10{fill:#2A94F4;}
	.st11{fill:#FCD2B1;}
	.st12{fill:#082735;}
	.st13{fill:#0B4870;}
	.st14{fill:#0A3E5B;}
	.st15{fill:#FFFFFF;}
	.st16{fill:#FFE3CA;}
	.st17{fill:#CCE9FF;}
	.st18{fill:#9FDAFF;}
	.st19{fill:#85D6FF;}
	.st20{fill:#B6E7FF;}
	.st21{fill:#85DDFF;}
	.st22{fill:#41AAF7;}
</style>
<g>
	<circle class="st0" cx="852.3" cy="193.1" r="125.5"/>
</g>
<g>
	<path class="st1" d="M279.7,204.3c-27.7,9.8-55.3,21.7-74.7,40.4s-29.1,45.6-17.5,68.1c15.6,30.1,64.8,47.6,65.1,80.2   c0.2,23.3-26.6,41.2-53.6,49.6c-27,8.5-56.9,11.5-81.4,23.9c-37,18.7-54.4,54.9-61.5,89.7c-7.4,36.1-4.4,77.2,27.3,103.3   c39.4,32.5,104.5,28.9,160.3,21.9c74.4-9.3,148.5-20.1,222.6-31C628.6,626.7,791,602.8,953.4,579c17.4-2.6,35.5-5.4,49.7-13.9   c28.1-17,30.5-52.1,14.1-77.2s-46.5-42.1-76.5-56.8c-30-14.7-61.7-28.7-84.2-50.5c-22.5-21.8-33.7-54-16.6-78.8   c14.4-21,45.4-32.2,58.9-53.6c17.8-28.2-2.7-64.1-34.9-82.1S426.3,152.7,279.7,204.3z"/>
</g>
<path class="st2" d="M1040.2,1033H38.4c-5.9,0-10.8-4.9-10.8-10.8v-47.4c0-5.9,4.9-10.8,10.8-10.8h1001.8c5.9,0,10.8,4.9,10.8,10.8  v47.4C1051,1028.1,1046.1,1033,1040.2,1033z"/>
<g>
	<g>
		<path class="st3" d="M719.5,1007H280.9c-31.2,0-56.4-29.5-56.4-65.9c0-18.2,6.3-34.7,16.5-46.6c10.2-11.9,24.3-19.3,39.9-19.3    h438.6V1007z"/>
		<path class="st4" d="M421.4,884H830c0.6,0,1.1,0.5,1.1,1.1V997c0,0.6-0.5,1.1-1.1,1.1H421.4c-28.1,0-51-22.8-51-51V935    C370.4,906.8,393.2,884,421.4,884z"/>
		<path class="st5" d="M387.5,905.8c-7.7,9-12.5,21.5-12.5,35.3c0,27.6,19.1,49.9,42.7,49.9h437.8v16H416.9    c-31.2,0-56.4-29.5-56.4-65.9c0-18.2,6.3-34.7,16.5-46.6c10.2-11.9,24.3-19.3,39.9-19.3h438.6v16H417.7    C405.9,891.2,395.2,896.7,387.5,905.8z"/>
		<g>
			<g>
				<line class="st4" x1="422.5" y1="972.9" x2="815.8" y2="972.9"/>
				<line class="st6" x1="422.5" y1="972.9" x2="815.8" y2="972.9"/>
			</g>
			<g>
				<line class="st4" x1="422.5" y1="952.9" x2="815.8" y2="952.9"/>
				<line class="st6" x1="422.5" y1="952.9" x2="815.8" y2="952.9"/>
			</g>
			<g>
				<line class="st4" x1="422.5" y1="932.9" x2="815.8" y2="932.9"/>
				<line class="st6" x1="422.5" y1="932.9" x2="815.8" y2="932.9"/>
			</g>
			<g>
				<line class="st4" x1="422.5" y1="912.9" x2="815.8" y2="912.9"/>
				<line class="st6" x1="422.5" y1="912.9" x2="815.8" y2="912.9"/>
			</g>
		</g>
	</g>
	<g>
		<path class="st7" d="M383.2,875.1h418.4c29.7,0,53.8-23.1,53.8-51.6c0-14.3-6-27.2-15.8-36.5c-9.7-9.3-23.2-15.1-38.1-15.1H383.2    V875.1z"/>
		<path class="st4" d="M672.3,778.9H277.7c-0.5,0-0.9,0.4-0.9,0.9v87.4c0,0.5,0.4,0.9,0.9,0.9h394.6c24.3,0,44-19.7,44-44v-1.2    C716.3,798.6,696.6,778.9,672.3,778.9z"/>
		<path class="st8" d="M700,795.9c7.4,7.1,11.9,16.8,11.9,27.6c0,21.6-18.2,39.1-40.7,39.1H253.5v12.6h418.4    c29.7,0,53.8-23.1,53.8-51.6c0-14.3-6-27.2-15.8-36.5s-23.2-15.1-38.1-15.1H253.5v12.6h417.7C682.4,784.4,692.6,788.8,700,795.9z"/>
		<g>
			<g>
				<line class="st4" x1="666.6" y1="857.6" x2="291.3" y2="857.6"/>
				<line class="st6" x1="666.6" y1="857.6" x2="291.3" y2="857.6"/>
			</g>
			<g>
				<line class="st4" x1="666.6" y1="837.6" x2="291.3" y2="837.6"/>
				<line class="st6" x1="666.6" y1="837.6" x2="291.3" y2="837.6"/>
			</g>
			<g>
				<line class="st4" x1="666.6" y1="817.6" x2="291.3" y2="817.6"/>
				<line class="st6" x1="666.6" y1="817.6" x2="291.3" y2="817.6"/>
			</g>
			<g>
				<line class="st4" x1="666.6" y1="797.6" x2="291.3" y2="797.6"/>
				<line class="st6" x1="666.6" y1="797.6" x2="291.3" y2="797.6"/>
			</g>
		</g>
	</g>
	<g>
		<path class="st9" d="M719.5,771.9H280.9c-31.2,0-56.4-29.5-56.4-65.9c0-18.2,6.3-34.7,16.5-46.6c10.2-11.9,24.3-19.3,39.9-19.3    h438.6V771.9z"/>
		<path class="st4" d="M421.4,648.9H830c0.6,0,1.1,0.5,1.1,1.1v111.9c0,0.6-0.5,1.1-1.1,1.1H421.4c-28.1,0-51-22.8-51-51v-12.2    C370.4,671.7,393.2,648.9,421.4,648.9z"/>
		<path class="st10" d="M387.5,670.7c-7.7,9-12.5,21.5-12.5,35.3c0,27.6,19.1,49.9,42.7,49.9h437.8v16H416.9    c-31.2,0-56.4-29.5-56.4-65.9c0-18.2,6.3-34.7,16.5-46.6c10.2-11.9,24.3-19.3,39.9-19.3h438.6v16H417.7    C405.9,656,395.2,661.6,387.5,670.7z"/>
		<g>
			<g>
				<line class="st4" x1="422.5" y1="737.8" x2="815.8" y2="737.8"/>
				<line class="st6" x1="422.5" y1="737.8" x2="815.8" y2="737.8"/>
			</g>
			<g>
				<line class="st4" x1="422.5" y1="717.8" x2="815.8" y2="717.8"/>
				<line class="st6" x1="422.5" y1="717.8" x2="815.8" y2="717.8"/>
			</g>
			<g>
				<line class="st4" x1="422.5" y1="697.8" x2="815.8" y2="697.8"/>
				<line class="st6" x1="422.5" y1="697.8" x2="815.8" y2="697.8"/>
			</g>
			<g>
				<line class="st4" x1="422.5" y1="677.8" x2="815.8" y2="677.8"/>
				<line class="st6" x1="422.5" y1="677.8" x2="815.8" y2="677.8"/>
			</g>
		</g>
	</g>
	<polygon class="st10" points="666.5,894.2 643.5,875.1 619.5,894.2 619.5,816.8 666.5,816.8  "/>
</g>
<g>
	<g>
		<g>
			<path class="st11" d="M398.5,620.1c30.2,7.5,141.7,19.8,197.1,25.6c12.3,1.3,21.9,2.3,27.1,2.8c2.9,0.3,4.5,0.4,4.5,0.4     s14.5-0.9,32.2-1.9c16.3-0.9,53.8-0.7,66.7-1.2c4.9-0.2,6.6-6.6,2.3-9.1c-7.7-4.4-39.8-17.4-55.6-19.3     c-9.7-1.2-20.4-9.9-28.9-14.7c-6.6-3.8-13.9,2.8-19.9,4.9c-2.9,1-5,7.5-8.3,7.8c-0.8,0.1-1.6,0.1-2.4,0.2     c-4.1,0.2-8.3,0-12.4-0.5c-1.1-0.1-2.2-0.3-3.3-0.5c-12.9-2-23.6-6-23.6-6c-39.5-20.3-126.4-74.5-194-60.2     c-0.6,0.1-1.1,0.2-1.6,0.4c-0.5,0.1-1.1,0.3-1.6,0.4C308.8,566.1,357.9,610,398.5,620.1z"/>
			<path class="st12" d="M398.5,620.1c30.2,7.5,141.7,19.8,197.1,25.6l10.1-57.9c-1.9-0.3-4-0.4-6.2-0.5     c-21.4-0.3-42.5-4.6-62.2-12.9c-44.8-19-108.3-38.2-160.5-25.2C308.8,566.1,357.9,610,398.5,620.1z"/>
		</g>
		<path class="st13" d="M640.6,604.1c0-5.8,7-9.2,7-9.2l54.1,19.8l29.5,15.9l5.8,8.1l-7,5.2l-60.4-8.6l-19.7-11.5L640.6,604.1z"/>
		<path class="st5" d="M613.3,615.6l9.4,32.9c2.9,0.3,4.5,0.4,4.5,0.4s14.5-0.9,32.2-1.9c16.3-0.9,53.8-0.7,66.7-1.2    c4.9-0.2,6.6-6.6,2.3-9.1c-7.7-4.4-39.8-17.4-55.6-19.3c-9.7-1.2-20.4-9.9-28.9-14.7c-6.6-3.8-13.9,2.8-19.9,4.9    c-2.9,1-5,7.5-8.3,7.8C614.9,615.5,614.1,615.6,613.3,615.6z"/>
	</g>
	<g>
		<g>
			<path class="st11" d="M705.5,607.5c-35.8,7.5-165.7,32.3-231.5,38.2c-14.6,1.3-26,2.3-32.2,2.8c-3.5,0.3-5.4,0.4-5.4,0.4     s-17.2-0.9-38.3-1.9c-19.3-0.9-64-0.7-79.3-1.2c-5.9-0.2-7.8-6.6-2.7-9.1c9.2-4.4,47.3-17.4,66.1-19.3     c11.6-1.2,24.2-9.9,34.3-14.7c7.8-3.8,16.5,2.8,23.7,4.9c3.5,1,5.9,7.5,9.8,7.8c1,0.1,1.9,0.1,2.9,0.2c4.9,0.2,9.9,0,14.7-0.5     c1.3-0.1,2.7-0.3,4-0.5c15.3-2,28-6,28-6c46.9-20.3,150.2-74.5,230.4-60.2c0.7,0.1,1.3,0.2,2,0.4c0.6,0.1,1.3,0.3,2,0.4     C814.7,566.1,753.7,597.4,705.5,607.5z"/>
			<path class="st14" d="M708.1,620.1c-35.8,7.5-168.3,19.8-234.1,25.6l-12-57.9c2.3-0.3,4.8-0.4,7.4-0.5     c25.4-0.3,50.5-4.6,73.9-12.9c53.3-19,128.7-38.2,190.7-25.2C814.7,566.1,756.3,610,708.1,620.1z"/>
		</g>
		<path class="st13" d="M420.5,604.1c0-5.8-8.3-9.2-8.3-9.2l-64.3,19.8l-35,15.9l-6.9,8.1l8.3,5.2l71.8-8.6l23.5-11.5L420.5,604.1z"/>
		<path class="st5" d="M452.9,615.6l-11.2,32.9c-3.5,0.3-5.4,0.4-5.4,0.4s-17.2-0.9-38.3-1.9c-19.3-0.9-64-0.7-79.3-1.2    c-5.9-0.2-7.8-6.6-2.7-9.1c9.2-4.4,47.3-17.4,66.1-19.3c11.6-1.2,24.2-9.9,34.3-14.7c7.8-3.8,16.5,2.8,23.7,4.9    c3.5,1,5.9,7.5,9.8,7.8C451,615.5,451.9,615.6,452.9,615.6z"/>
	</g>
	<g>
		<path class="st10" d="M674,500.4c0,2.6,0,5.2-0.1,7.8H411.8c-0.1-2.6-0.1-5.2-0.1-7.8c0-97,43.3-178.3,101.5-199.3    c9.5-3.4,20.6,31.9,30.8,31.9c9.7,0,18-35.5,27.1-32.4C630,320.8,674,402.6,674,500.4z"/>
		<path class="st15" d="M571.1,300.6l-29,199.7l-29-199.3c9.5-3.4,19.5-5.3,29.7-5.3C552.5,295.9,562,297.5,571.1,300.6z"/>
		<polygon class="st11" points="558.5,315.2 542.5,338.2 526.4,315.2 522.8,269.1 562.2,269.1   "/>
		<g>
			<path class="st13" d="M529.1,186.5c-8-13.7-4.2-32.3,6.6-43.8c10.9-11.5,27.5-16.5,43.3-15.7c15.8,0.8,30.9,6.8,44.8,14.4     c15,8.2,29.2,18.7,38.2,33.2c9,14.5,11.8,33.6,3.9,48.8c-4.1,7.9-10.7,14.1-15.9,21.4c-5.1,7.3-8.8,16.6-5.9,25     c3.3,9.5,13.8,14.7,18.2,23.7c4.6,9.7,0.4,22.4-8.6,28.2s-21.6,4.8-30.2-1.6c-8.6-6.4-13.1-17.6-12.6-28.3     c0.5-9.7,4.8-18.8,9.3-27.4c4.5-8.6,9.3-17.3,11-26.9c1.7-9.6-0.4-20.5-7.7-26.8c-10.5-9.1-26.3-5.7-40.1-5.9     c-21.8-0.4-43.1-11.6-55.7-29.4"/>
		</g>
		<path class="st13" d="M488.2,225.8c0-32.7,24.2-54.3,54-54.3s54,21.6,54,54.3s-24.2,59.1-54,59.1S488.2,258.4,488.2,225.8z"/>
		<path class="st16" d="M500.3,238.1c0-27.5,18.7-49.7,41.8-49.7c23.1,0,41.8,22.3,41.8,49.7s-18.7,54.1-41.8,54.1    C519.1,292.2,500.3,265.5,500.3,238.1z"/>
		<g>
			<path class="st13" d="M518.3,204.7c20.3,20.4,46.8,30.2,72.3,26.7c-3.2-19.7-13.1-37.6-26.8-47.3c-13.7-9.7-31.1-10.8-45.2-2     c-14.1,8.8-24.3,27.4-25.4,47.5c11.5,1.3,23-10.6,24.4-25.4"/>
		</g>
		
			<ellipse transform="matrix(0.9058 -0.4237 0.4237 0.9058 -58.7901 235.6451)" class="st16" cx="500.6" cy="250.1" rx="6.7" ry="12.1"/>
		
			<ellipse transform="matrix(0.4237 -0.9058 0.9058 0.4237 110.2439 673.3739)" class="st16" cx="584.3" cy="250.1" rx="12.1" ry="6.7"/>
		<circle class="st8" cx="504.6" cy="261.2" r="4.2"/>
		<circle class="st8" cx="579.8" cy="261.2" r="4.2"/>
	</g>
	<g>
		<g>
			<path class="st4" d="M537.6,484.4c0-18.5-47.5-71.6-107.1-66.8c0,14.5,6.4,33.8,6.4,33.8L537.6,484.4z"/>
			<path class="st1" d="M542.4,482c-8.1-14.5-47.5-61.2-128-60.4c0,19.3,8.1,29.8,8.1,29.8L542.4,482z"/>
			<path class="st17" d="M530.3,478c-19.3-19.3-72.5-44.3-126.4-41.9c0.8,46.7,3.2,153,3.2,153s102.2,8.1,123.2,23.3     C530.3,591.5,530.3,478,530.3,478z"/>
			<path class="st4" d="M547.2,484.4c0-18.5,47.5-71.6,107.1-66.8c0,14.5-6.4,33.8-6.4,33.8L547.2,484.4z"/>
			<path class="st1" d="M542.4,482c8.1-14.5,47.5-61.2,128-60.4c0,19.3-8.1,29.8-8.1,29.8L542.4,482z"/>
			<path class="st17" d="M554.5,478c19.3-19.3,72.5-44.3,126.4-41.9c-0.8,46.7-3.2,153-3.2,153s-102.2,8.1-123.2,23.3     C554.5,591.5,554.5,478,554.5,478z"/>
			<rect x="530.3" y="478" class="st18" width="24.2" height="134.4"/>
		</g>
		<rect x="537.6" y="478" class="st19" width="9.7" height="134.4"/>
	</g>
	<path class="st11" d="M399.9,478c0,0-10.5,31.4-7.2,35.4s28.2,22.5,28.2,22.5s2.4-28.2-6.4-37C405.5,490,399.9,478,399.9,478z"/>
	<path class="st11" d="M684.6,478c0,0,10.5,31.4,7.2,35.4s-28.2,22.5-28.2,22.5s-2.4-28.2,6.4-37C678.9,490,684.6,478,684.6,478z"/>
</g>
<g>
	<path class="st20" d="M945.1,986c21.9,0,31.1-17.5,34.8-36c4.1-20.9,1.1-43.2,1.1-43.2h-71.7c0,0-0.1,0.8-0.3,2.4   C907.6,922.3,903.3,986,945.1,986z"/>
	<path class="st21" d="M909.2,906.8c0,1.6,16.1,2.8,35.9,2.8c19.8,0,35.9-1.3,35.9-2.8c0-1.6-16.1-2.8-35.9-2.8   C925.3,904,909.2,905.3,909.2,906.8z"/>
	<path class="st10" d="M848,708c0,0,37.8,57.5,60.5,92.6c22.7,35.1,28.6,42.4,31.3,53.7c2.7,11.3,5.1,53.2,5.1,53.2h1.7   c0,0-0.6-35.5-2.6-47.5c-2-11.6,0.1-15.7,1.8-27.9c1.6-12.2,3.8-31.6-8.5-45.1c-12.3-13.5-9-26.7-13.4-35.7   c-4.3-8.9-37.8-19.7-42.1-28.9C877.4,713.4,858.5,707.8,848,708z"/>
	<path class="st22" d="M848,708c0,0,11.9,13.5,20,18.1c8.1,4.6,11.9,0.5,18.1,11.6c6.2,11.1,6.5,15.9,12.1,21.6   c5.7,5.7,12.4,5.9,13,18.4c0.5,12.4-2.7,23-2.7,23S850.4,711,848,708z"/>
	<path class="st10" d="M942,907.6h-1.7c0,0-0.5-11.5-5.1-17.1c-2.9-3.6-15.5-7.7-27.8-12.6c-6.8-2.7-13.6-5.6-18.7-8.9   c-14.4-9.1-28.1-38.6-29.3-43.8c-0.4-1.8-0.6-2.9-0.6-3.7v0c0-1.4,0.7-1.6,1.9-3c0.6-0.7,2.3-0.5,4.5,0.2   c6.2,1.9,11.4,6.1,14.7,11.8c3,5.2,7.8,11.7,13.7,13.3c10.2,2.7,9.3,4.4,13.1,14.7c3.7,10.3,13.2,12,25,24.2   C943.5,894.8,942,907.6,942,907.6z"/>
	<path class="st22" d="M907.4,877.9c-6.8-2.7-13.6-5.6-18.7-8.9c-14.4-9.1-28.1-38.6-29.3-43.8c-0.4-1.8-0.6-2.9-0.6-3.7   c0,0.3,0.7,5,8.2,8.1c7.8,3.2,9.3,3.2,10.3,8.1c1,4.9,1.9,10.2,5.9,11.2c4.1,1,6.6-3.6,9.8,3.9c3.2,7.4,4.8,10,7.7,11   c3,1,5.2-0.5,5.9,5.2C907,872.6,907.2,875.9,907.4,877.9z"/>
	<path class="st10" d="M954.4,907.6h2c0,0,3.9-71.2,9.3-77.8c3.5-4.3,15-11.9,29.6-17.7c8.1-3.2,16.1-6.7,22.1-10.5   c17-10.8,33.3-45.7,34.7-51.9c0.5-2.2,0.7-3.5,0.7-4.4v0c0-1.7-0.9-1.9-2.3-3.6c-0.7-0.8-2.8-0.5-5.3,0.2   c-7.3,2.2-13.5,7.3-17.4,13.9c-3.6,6.2-9.2,13.8-16.2,15.7c-12,3.2-11,5.2-15.5,17.4c-4.4,12.2-15.6,14.2-29.6,28.7   C952.6,832,954.4,907.6,954.4,907.6z"/>
	<path class="st22" d="M995.4,812.1c8.1-3.2,16.1-6.7,22.1-10.5c17-10.8,33.3-45.7,34.7-51.9c0.5-2.2,0.7-3.5,0.7-4.4   c0,0.4-0.8,5.9-9.7,9.6c-9.2,3.8-11,3.8-12.2,9.6c-1.2,5.8-2.2,12-7,13.2c-4.8,1.2-7.8-4.2-11.6,4.6c-3.8,8.8-5.6,11.8-9.1,13   c-3.5,1.2-6.2-0.6-6.9,6.2C995.8,805.7,995.5,809.6,995.4,812.1z"/>
	<g>
		<path class="st17" d="M945.1,986c21.9,0,31.1-17.5,34.8-36c-21.5-8.1-48.5-21.2-70.9-40.8C907.6,922.3,903.3,986,945.1,986z"/>
	</g>
</g>
<g>
	<path class="st20" d="M127.9,988.7c18,0,25.6-14.4,28.6-29.7c3.4-17.2,0.9-35.6,0.9-35.6H98.4c0,0-0.1,0.7-0.2,1.9   C97,936.2,93.5,988.7,127.9,988.7z"/>
	<path class="st21" d="M98.4,923.4c0,1.3,13.2,2.3,29.5,2.3c16.3,0,29.5-1,29.5-2.3s-13.2-2.3-29.5-2.3   C111.6,921.1,98.4,922.1,98.4,923.4z"/>
	<path class="st10" d="M31,727.3c0,0,37.3,56.7,59.7,91.4c22.4,34.6,28.2,41.8,30.9,53c2.7,11.2,5.1,52.5,5.1,52.5h2.9   c0,0,1.9-34.9-1.6-46.3s-2.1-16-0.5-28c1.6-12,3.7-31.2-8.4-44.5c-12.1-13.3-8.9-26.4-13.2-35.2c-4.3-8.8-37.3-19.4-41.6-28.5   C60.1,732.6,41.4,727,31,727.3z"/>
	<path class="st22" d="M39.2,727.3c0,0,11.7,13.3,19.7,17.8c8,4.5,11.7,0.5,17.8,11.5c6.1,10.9,6.4,15.7,12,21.3   c5.6,5.6,12.3,5.9,12.8,18.1c0.5,12.3-2.7,22.6-2.7,22.6S41.6,730.2,39.2,727.3z"/>
	<path class="st10" d="M139.1,923.4l2.1-0.6c0,0-3.7-14.7-0.1-23.4c2.3-5.7,16.6-15.5,30.3-26.4c7.6-6,15-12.2,20.2-18.3   c14.7-16.9,20.8-59.2,20.3-66.3c-0.2-2.5-0.4-3.9-0.7-4.9l0,0c-0.6-1.8-1.5-1.8-3.6-3.1c-1-0.6-3.1,0.3-5.6,1.9   c-7.1,4.7-12.1,12-14.1,20.3c-1.8,7.7-5.4,17.7-12.2,21.9c-11.8,7.2-10.1,9.1-10.9,23.5c-0.8,14.4-12.1,20.1-22.4,39.9   C132.3,907.8,139.1,923.4,139.1,923.4z"/>
	<path class="st22" d="M171.5,873c7.6-6,15-12.2,20.2-18.3c14.7-16.9,20.8-59.2,20.3-66.3c-0.2-2.5-0.4-3.9-0.7-4.9   c0.1,0.5,1,6.6-7.3,13.3c-8.6,7-10.5,7.6-9.9,14.1c0.6,6.6,1.5,13.5-3.3,16.3c-4.7,2.8-9.7-2-10.9,8.6c-1.2,10.6-2.2,14.4-5.6,16.8   c-3.3,2.4-6.7,1.3-5.4,8.8C169.9,866.1,170.8,870.3,171.5,873z"/>
	<g>
		<path class="st17" d="M127.9,988.7c18,0,25.6-14.4,28.6-29.7c-17.7-6.7-39.9-17.4-58.4-33.6C97,936.2,93.5,988.7,127.9,988.7z"/>
	</g>
</g>
<script xmlns="">Object.defineProperty(screen, "availTop", { value: 0 });
Object.defineProperty(screen, "availLeft", { value: 0 });
Object.defineProperty(screen, "availWidth", { value: 1920 });
Object.defineProperty(screen, "availHeight", { value: 1080 });
Object.defineProperty(screen, "colorDepth", { value: 24 });
Object.defineProperty(screen, "pixelDepth", { value: 24 });
Object.defineProperty(navigator, "hardwareConcurrency", { value: 8 });
Object.defineProperty(navigator, "userAgent", { value: "Mozilla/5.0 (Macintosh; Intel Mac OS X 10.14; rv:79.0) Gecko/20100101 Firefox/79.0" });
Object.defineProperty(navigator, "appVersion", { value: "5.0 (Macintosh)" });
Object.defineProperty(navigator, "doNotTrack", { value: "unspecified" });
window.screenY = 0
window.screenTop = 0

                try {
                    window.top.window.outerHeight = window.screen.height

                } catch (e) {}
            window.screenX = 0
window.screenLeft = 0

                try {
                    window.top.window.outerWidth = window.screen.width

                } catch (e) {}
            </script></svg>