<svg xmlns="http://www.w3.org/2000/svg" xmlns:xlink="http://www.w3.org/1999/xlink" version="1.1" id="Profile_Picture" x="0px" y="0px" viewBox="0 0 1920 1080" style="enable-background:new 0 0 1920 1080;" xml:space="preserve">
<style type="text/css">
	.st0{opacity:0.1;fill:#2A94F4;}
	.st1{fill:#0B4870;}
	.st2{fill:#2A94F4;}
	.st3{fill:#CC9272;}
	.st4{fill:#DBA17B;}
	.st5{fill:#0E538C;}
	.st6{fill:#FFBE55;}
</style>
<ellipse class="st0" cx="975.8" cy="1011.6" rx="606" ry="68.4"/>
<path class="st1" d="M979.7,453.9c0,0-108.8-37.1-122.2-122.2c-10.3-65.4-12-218.4,77.5-263c231.2-115.4,377.3,28.5,377.3,28.5  s77.9,96.4,56.8,169.2S1214.4,601,1054.2,475.2L979.7,453.9z"/>
<path class="st2" d="M913.4,418.3c0,0-218.7-29.5-293,32.2v382h564.7c0,0-15.3-244.4-112.1-327.9  C976.4,421.2,913.4,418.3,913.4,418.3z"/>
<path class="st3" d="M926.9,404.3l-65.8,94c-27.8,39.6-19.6,94.4,18.4,123.6l0,0c39.4,30.3,95.7,21.7,124.9-19.1  c34.3-47.9,73.2-103.1,77.7-112.7C1090.4,472.4,964.1,389.3,926.9,404.3z"/>
<polygon class="st4" points="462,959.1 455.6,974.8 468.4,982.3 481.7,955.7 "/>
<path class="st5" d="M508.7,660.7c0,0-3.9,118.8-6,146.7c-2.1,27.9-40.7,151.7-40.7,151.7l18.3,8.1c0,0,59.5-106.2,66.3-133.8  s10.9-76.3,22-92.6s21.3,87.4,22.3,101.6c1,14.2,10.5,135.7,10.5,135.7l23.8-2l-16.1-300.7C609.2,675.4,530,638.4,508.7,660.7z"/>
<path class="st6" d="M585.4,0v1011.6h844.6V0H585.4z M1378.8,803.1H636.4V60.6h742.4V803.1z"/>
<path class="st2" d="M585.4,421.7c0,0-87.3,65.5-76.6,239.1l76.6,14.7V421.7z"/>
<path class="st2" d="M554.4,440.6"/>
<path class="st2" d="M585.4,421.1"/>
<path class="st1" d="M455.7,970.9c-0.4-1.2-2-1.4-2.8-0.4c-2.2,3.2-5.4,7.9-6.5,10.3c-0.7,1.6-1.5,3.3-2.1,4.6  c-0.7,1.5,0,3.2,1.5,3.7c4.4,1.7,12.7,5.6,16.2,11.7c4.7,8.5,23.3,13.9,38.2,9.1c0,0,6.8-12.6-2.8-11.7c-5.7,0.5-11.4,3.6-15.8-3.9  c-4.4-7.4-1-15.6-10.8-16.9c0,0-3.4,0.7-7.1,0C460.8,976.9,457,974.9,455.7,970.9z"/>
<path class="st4" d="M609.2,602.9c16.1-9.8,29.8-1.4,22.7,0c-8.7,1.7-12.5,9.1-3.4,15.2c9.2,6.1,19.1,26.1,3,27.8  c-7.6,0.8-21.2-7.3-28-25.8C596.7,601.5,604.8,605.6,609.2,602.9z"/>
<path class="st2" d="M585.4,402.2c0,0-62.4,18-80.7,107.3c-18.3,89.3,97.4,111.6,97.4,111.6l7.1-21.3c0,0-60.9-41.6-69-61.9  c-8.1-20.3,45.2-95.7,45.2-95.7V402.2z"/>
<path class="st4" d="M985.3,113.1c-0.5,5,37,141.1,177.4,96c118.1-38,111.4-52.9,123.5,66.7c11.3,111.9-144.6,397.4-334.1,215.4  c-64.2-61.7-55.6-205.4-8.5-313.7C954.1,153.3,967.9,131.3,985.3,113.1z"/>
<path class="st4" d="M883.4,184.1c0,0,27.1-25.2,35.6,19.7c8.5,44.9,18.6,196.6-21.9,138.9S839.3,230.1,883.4,184.1z"/>
<path class="st4" d="M1310.5,356.1c0,0-2.1-37-39.3-10.5c-37.2,26.5-149.6,128.9-80.4,115.3C1260,447.3,1310.4,419.8,1310.5,356.1z"/>
</svg>