<svg xmlns="http://www.w3.org/2000/svg" xmlns:xlink="http://www.w3.org/1999/xlink" version="1.1" id="Layer_1" x="0px" y="0px" viewBox="0 0 1080 1080" style="enable-background:new 0 0 1080 1080;" xml:space="preserve">
<style type="text/css">
	.st0{fill:none;stroke:#A8A8A8;stroke-miterlimit:10;stroke-dasharray:12.0716,12.0716;}
	.st1{fill:#F7F7F7;}
	.st2{fill:#F2F2F2;}
	.st3{fill:#FFEBC2;}
	.st4{fill:#FCAD00;}
	.st5{fill:#CCE9FF;}
	.st6{fill:#2A94F4;}
	.st7{fill:#B6E7FF;}
	.st8{fill:#85DDFF;}
	.st9{fill:#41AAF7;}
	.st10{fill:#E2E2E2;}
	.st11{fill:#0D4870;}
	.st12{fill:#0E538C;}
	.st13{fill:#FFD3AE;}
	.st14{fill:#FFE3CA;}
	.st15{fill:#D6D6D6;}
	.st16{fill:#FFBE55;}
</style>
<g>
	<circle class="st0" cx="305.4" cy="404.3" r="165.2"/>
</g>
<g>
	<path class="st1" d="M712.2,267.1c24.3,0.3,48.7,5.5,70.7,15.9c15.6,7.4,29.9,17,41.2,29.2c22.7,24.4,31.7,60.2,16.2,87   c-13,22.4-41.5,38.5-41.8,64.3c-0.4,30.1,37.7,50.1,71,56.3c33.2,6.2,70.5,7.4,95.5,28.8c21.5,18.4,27.2,47.9,20.1,72.7   c-7.1,24.7-25.2,45.3-45.3,62.9c-50.4,44.1-115.1,73-181.4,95.9c-140.1,48.3-292.1,71.8-445.1,68.9c-38.2-0.7-80.9-4.8-107.7-30.6   c-27-26-27.9-67.1-10.2-96.9c17.7-29.8,50.2-49.8,84.2-64.3c34-14.6,70.5-24.7,103.5-40.8c25-12.1,50.6-35.2,40-60   c-7.5-17.6-29.7-26.1-49.2-33.3c-27.5-10.1-55-21.9-77.5-39.7c-22.5-17.8-39.8-42.5-41.5-68.6c-1.6-24.4,10.5-47.7,28.4-65.2   c17.9-17.5,41.2-29.8,65.1-40.4C442.8,267.5,646.5,266.3,712.2,267.1z"/>
</g>
<path class="st2" d="M1027.2,966.9H64.8c-6.2,0-11.3-5.1-11.3-11.3v-56c0-6.2,5.1-11.3,11.3-11.3h962.5c6.2,0,11.3,5.1,11.3,11.3v56  C1038.6,961.8,1033.5,966.9,1027.2,966.9z"/>
<g>
	<rect x="121.1" y="815.3" class="st3" width="696" height="95.6"/>
	<path class="st4" d="M814.2,815.3V911H84v7.2c0,8.9,7.8,16,17.4,16h709.7c22.6,0,40.9-16.9,40.9-37.8v-64   c0-20.9-18.3-37.8-40.9-37.8H101.4c-9.6,0-17.4,7.2-17.4,16v4.6H814.2z"/>
	<g>
		<rect x="121.1" y="858" class="st3" width="696" height="53"/>
	</g>
	
		<rect x="161.6" y="698.8" transform="matrix(-1 -4.489932e-11 4.489932e-11 -1 888.7731 1480.8239)" class="st5" width="565.6" height="83.2"/>
	<path class="st6" d="M727.2,698.8V782h-587v6.3c0,7.7,6.3,14,14,14h570.5c18.1,0,32.9-14.7,32.9-32.9v-55.7   c0-18.1-14.7-32.9-32.9-32.9H154.2c-7.7,0-14,6.3-14,14v4H727.2z"/>
	<g>
		<rect x="161.6" y="735.9" class="st5" width="565.6" height="46.1"/>
	</g>
	<polygon class="st6" points="167.3,936.6 188.7,924.3 210.1,936.6 210.1,857.9 167.3,857.9  "/>
	<g>
		<polygon class="st5" points="167.3,936.6 188.7,924.3 188.7,857.9 167.3,857.9   "/>
	</g>
</g>
<g>
	<path class="st7" d="M949.6,931.9c24.6,0,35-19.7,39.1-40.6c4.6-23.5,1.2-48.6,1.2-48.6h-80.7c0,0-0.1,1-0.3,2.7   C907.4,860.2,902.5,931.9,949.6,931.9z"/>
	<path class="st8" d="M909.2,842.7c0,1.8,18.1,3.2,40.4,3.2c22.3,0,40.4-1.4,40.4-3.2c0-1.8-18.1-3.2-40.4-3.2   C927.3,839.5,909.2,840.9,909.2,842.7z"/>
	<path class="st6" d="M840.3,618.9c0,0,42.6,64.8,68.1,104.3c25.5,39.5,32.2,47.7,35.3,60.5c3,12.8,5.8,59.9,5.8,59.9h1.9   c0,0-0.7-40-3-53.5c-2.2-13,0.2-17.7,2-31.4c1.8-13.7,4.3-35.6-9.6-50.8c-13.8-15.2-10.2-30.1-15.1-40.1   c-4.9-10-42.6-22.2-47.4-32.5C873.4,625,852.1,618.6,840.3,618.9z"/>
	<path class="st9" d="M840.3,618.9c0,0,13.4,15.2,22.5,20.4c9.1,5.2,13.4,0.6,20.4,13.1c7,12.5,7.3,17.9,13.7,24.3   c6.4,6.4,14,6.7,14.6,20.7c0.6,14-3,25.8-3,25.8S843,622.2,840.3,618.9z"/>
	<path class="st6" d="M946.1,843.6h-1.9c0,0-0.6-13-5.7-19.2c-3.3-4.1-17.4-8.7-31.3-14.2c-7.7-3-15.3-6.4-21-10   c-16.2-10.3-31.6-43.4-33-49.3c-0.5-2.1-0.7-3.3-0.7-4.2v0c0-1.6,0.8-1.8,2.2-3.4c0.7-0.8,2.6-0.5,5,0.2c7,2.1,12.9,6.9,16.5,13.2   c3.4,5.8,8.8,13.2,15.4,14.9c11.4,3.1,10.5,4.9,14.7,16.6c4.2,11.6,14.8,13.5,28.2,27.2C947.8,829.1,946.1,843.6,946.1,843.6z"/>
	<path class="st9" d="M907.1,810.2c-7.7-3-15.3-6.4-21-10c-16.2-10.3-31.6-43.4-33-49.3c-0.5-2.1-0.7-3.3-0.7-4.2   c0,0.4,0.8,5.6,9.2,9.1c8.8,3.6,10.5,3.6,11.6,9.1c1.1,5.5,2.1,11.4,6.7,12.6c4.6,1.1,7.4-4,11,4.4c3.6,8.4,5.3,11.2,8.7,12.4   c3.3,1.1,5.9-0.6,6.6,5.9C906.7,804.1,907,807.9,907.1,810.2z"/>
	<path class="st6" d="M960.1,843.6h2.3c0,0,4.4-80.2,10.5-87.6c3.9-4.8,16.9-13.4,33.4-20c9.1-3.6,18.1-7.5,24.9-11.9   c19.2-12.2,37.5-51.4,39-58.4c0.6-2.4,0.8-3.9,0.8-4.9v0c0-1.9-1-2.2-2.6-4.1c-0.8-0.9-3.1-0.6-6,0.3c-8.3,2.5-15.3,8.2-19.6,15.7   c-4,6.9-10.4,15.6-18.2,17.7c-13.5,3.6-12.4,5.9-17.4,19.6c-5,13.8-17.6,16-33.4,32.3C958,758.5,960.1,843.6,960.1,843.6z"/>
	<path class="st9" d="M1006.2,736c9.1-3.6,18.1-7.5,24.9-11.9c19.2-12.2,37.5-51.4,39-58.4c0.6-2.4,0.8-3.9,0.8-4.9   c-0.1,0.5-0.9,6.7-10.9,10.8c-10.4,4.3-12.4,4.3-13.8,10.8c-1.4,6.5-2.5,13.5-7.9,14.9c-5.4,1.4-8.8-4.7-13.1,5.2   c-4.3,9.9-6.3,13.3-10.3,14.7c-3.9,1.4-6.9-0.7-7.8,7C1006.7,728.8,1006.4,733.3,1006.2,736z"/>
	<g>
		<path class="st5" d="M949.6,931.9c24.6,0,35-19.7,39.1-40.6c-24.2-9.2-54.6-23.8-79.8-46C907.4,860.2,902.5,931.9,949.6,931.9z"/>
	</g>
</g>
<path class="st10" d="M683.7,451.9c2.1-8.9,12.7-25.5,22-26c-0.6,3.1-1.6,7,0,10C707.3,438.8,683.7,451.9,683.7,451.9z"/>
<g>
	<path class="st6" d="M676.5,851.6c0,0,0.9,56.8-3.6,58.2c-5.9-2.5-22.2-45.6-17.5-51c4.7-5.4,10.1-15.3,10.1-15.3L676.5,851.6z"/>
	<path class="st11" d="M621.5,637.6c0,0,108.5,46.6,110.9,55.1c2.5,8.6-52,160.9-52,160.9l-15.9-8c0,0,9.4-115.4,31.5-133.2   c-24.6-10.6-144.7-22.8-140-62.2C560.7,610.7,621.5,637.6,621.5,637.6z"/>
	<path class="st6" d="M697.4,858.1c6.7,12,28.1,47.2,27.1,52.7c-6.3,1.9-39.2-21.4-39.6-31c-0.4-9.6,3.1-18.9,3.1-18.9L697.4,858.1z   "/>
	<path class="st12" d="M553.2,651.6c-5.9,32.3-17.4,41.1,84.3,81.8c1.7,10.8,26.6,109.7,49,132.7c4.6-0.6,12.5-5.2,12.5-5.2   s-22-142.3-26.5-148.4c-4.1-5.6-66.1-60.9-66.1-60.9H553.2z"/>
	<path class="st13" d="M538.4,668.8l-1.4,8.6c0,0-42.5,15.4-44.5,17.1c-2,1.7,41.8,1.8,43,1.8c-2.5,3.3-6.5,13.6-5.3,16.1   c4.8-4.3,10.6-13.9,14.2-16.9c3.6-3,6.1-23.9,6.1-23.9L538.4,668.8z"/>
	<path class="st6" d="M605.8,508.4c-20.5,6.2-39.5,7.7-55.2,95.2l-12.6,67l13,3.5l7.9-20.1c0,0,62.7,17.3,67.8-11.8   c5.1-29.2,5.9-36.3,7.9-38.6c2-2.4,5.5-9.9,5.5-9.9s44.2,103.1,48.9-45.7c-4.7,2.7-12.7-0.4-12.7-0.4s-5.9,51.5-10.6,45.2   c-4.7-6.3-7.5-83.4-45.7-82L605.8,508.4z"/>
	<path class="st12" d="M613.9,393.8c0,14.3-11.6,25.9-25.9,25.9c-14.3,0-25.9-11.6-25.9-25.9s22.8-20.3,37.1-20.3   C613.5,373.5,613.9,379.5,613.9,393.8z"/>
	<path class="st13" d="M606.2,478.9c0.3,14.7-8.4,34.9-8.4,34.9l20.6,24.1l3.2-19.6v-39.5H606.2z"/>
	<path class="st12" d="M575.3,433.5c0-21.2,17.2-38.4,38.4-38.4s39,17.8,39,39c0,21.2-16.5,40.7-37.6,40.7   C593.8,474.8,575.3,454.7,575.3,433.5z"/>
	<path class="st14" d="M652,451.9c0,21.5-12.7,42-29,42s-35-20.5-35-42c0-21.5,18.2-39,34.5-39c14.1,0,25.9,13.1,28.8,30.6   C651.8,446.2,652,449,652,451.9z"/>
	<path class="st12" d="M651.3,443.1c-10.7-4.3-18.5-11.5-22.4-26.9c-1.9,15.4-17.4,30.4-43.5,35.6c0-22.4,18.9-40.5,35.9-40.5   C636,411.4,648.3,425,651.3,443.1z"/>
	<path class="st15" d="M716.4,432.7c-1.5-2.9-4-5.5-4-5.5s-26.4,23.2-28.7,24.7S626,433.2,626,433.2l-1.8,14l1.9,52.8l59.3,17.7   l23.6-9.2L716.4,432.7z"/>
	<path class="st16" d="M718,431.6c0,0-28.2,18.5-29,21.7c-0.8,3.2-6.7,6.3-15,1.7c-8.4-4.6-54-15.2-54-15.2l3.8,81.8l51.4,8.4   l35.3-14.3L718,431.6z"/>
	
		<ellipse transform="matrix(0.9441 -0.3298 0.3298 0.9441 -119.13 218.8936)" class="st14" cx="585.7" cy="460.6" rx="8.2" ry="12.2"/>
	<path class="st13" d="M688.9,550.8l1.1-15.5l6.7-16.3l-22.4-19.1c0,0,0.7,4.8,3.4,8.5c2.6,3.7,3.9,5.7,3.9,5.7s-13.5-8-15.7-9.2   c-1.1,1.5-1.9,9.2,2.4,12.7c4.3,3.5,10.6,12.1,10.6,12.1l-2.9,20C676.1,549.8,686.1,555.4,688.9,550.8z"/>
</g>
</svg>