<svg version="1.1" id="Reading_List" xmlns="http://www.w3.org/2000/svg" xmlns:xlink="http://www.w3.org/1999/xlink" x="0px" y="0px" viewBox="0 0 1920 1080" style="enable-background:new 0 0 1920 1080;" xml:space="preserve">
<style xmlns="http://www.w3.org/2000/svg" type="text/css">
	.st0{opacity:0.1;fill:#00aef0;}
	.st1{fill:#00aef0;}
	.st2{fill:#F7F7F7;}
	.st3{fill:#00aef0;}
	.st4{fill:#CCE9FF;}
	.st5{fill:#00aef0;}
	.st6{fill:#FCD2B1;}
	.st7{fill:#FFE3CA;}
</style>
<ellipse xmlns="http://www.w3.org/2000/svg" class="st0" cx="960" cy="1008.6" rx="960" ry="60.12"/>
<g xmlns="http://www.w3.org/2000/svg">
	<g>
		<rect x="130.84" y="729.81" class="st1" width="421" height="278.79"/>
		<polygon class="st1" points="651.55,936.88 651.55,801.53 1504.62,801.53 1504.62,729.81 551.84,729.81 551.84,1008.6     1504.62,1008.6 1504.62,936.88   "/>
		<rect x="610" y="801.53" class="st2" width="842.92" height="135.34"/>
	</g>
	<g>
		
			<rect x="1144.82" y="515.62" transform="matrix(-1 -1.224647e-16 1.224647e-16 -1 2649.4365 1245.4275)" class="st3" width="359.8" height="214.19"/>
		<polygon class="st3" points="1045.11,557.12 1045.11,688.3 192.04,688.3 192.04,729.81 1144.82,729.81 1144.82,515.62     192.04,515.62 192.04,557.12   "/>
		
			<rect x="243.74" y="557.12" transform="matrix(-1 -1.224647e-16 1.224647e-16 -1 1350.9155 1245.4275)" class="st2" width="863.44" height="131.18"/>
	</g>
	<g>
		
			<rect x="1236.99" y="142.68" transform="matrix(-1 -1.224647e-16 1.224647e-16 -1 2741.6064 444.6829)" class="st3" width="267.63" height="159.32"/>
		<polygon class="st3" points="1162.82,173.55 1162.82,271.13 528.28,271.13 528.28,302 1236.99,302 1236.99,142.68 528.28,142.68     528.28,173.55   "/>
		
			<rect x="566.74" y="173.55" transform="matrix(-1 -1.224647e-16 1.224647e-16 -1 1775.7267 444.6829)" class="st2" width="642.25" height="97.58"/>
	</g>
	<g>
		<rect x="610" y="22.67" class="st4" width="201.59" height="120.01"/>
		<polygon class="st4" points="867.46,119.43 867.46,45.93 1345.43,45.93 1345.43,22.67 811.59,22.67 811.59,142.68 1345.43,142.68     1345.43,119.43   "/>
		<rect x="832.68" y="45.93" class="st2" width="483.78" height="73.5"/>
	</g>
	<g>
		<rect x="130.84" y="302" class="st5" width="359.8" height="214.19"/>
		<polygon class="st5" points="590.35,474.69 590.35,343.51 1443.42,343.51 1443.42,302 490.64,302 490.64,516.19 1443.42,516.19     1443.42,474.69   "/>
		<rect x="528.28" y="343.51" class="st2" width="863.44" height="131.18"/>
	</g>
</g>
<g xmlns="http://www.w3.org/2000/svg">
	<path class="st6" d="M1609.15,661.39c0,0,0,116.46,0,128.68c0,12.22,9.06,188.82,9.06,188.82h19.84   C1638.04,978.89,1690.23,729.3,1609.15,661.39z"/>
	<path class="st7" d="M1643.29,634.77c0,0,2.5,145.39,14.61,178.43c12.1,33.04,90.9,165.69,90.9,165.69l15.01-9.85   c0,0-35.22-126.89-61.42-164.19c-16.62-23.67-2.39-143.46-2.39-143.46L1643.29,634.77z"/>
	<path class="st5" d="M1651.22,329.69c0,0,35.16-17.22,47.63,21.66c12.48,38.87,18.31,52.19,46.07,84.4s4.17,105.4-35.82,116.57   c-39.98,11.17-82.47,3.66-82.33-12.02C1626.92,524.62,1624.43,376.89,1651.22,329.69z"/>
	<g>
		<path class="st7" d="M1651.22,329.69c0,0-2.13,36.65,9.09,35.37c8.84-1.01,10.1,9.6,7.07,12.63s-11.62,5.05-13.64,3.03    s-4.55,12.13,2.38,26.78h-24.1v-19.7C1632.02,387.79,1590.59,376.17,1651.22,329.69z"/>
		<path class="st1" d="M1632.02,407.38c0,0-14.3,19.57-24.41,31.98s5.55,112.46,5.55,112.46s59.99,1.13,59.99,0    s5.42-101.56,2.28-123.56C1671.58,401.34,1632.02,407.38,1632.02,407.38z"/>
		<g>
			<path class="st6" d="M1688.36,435.97c0,0,24.1,32.82,34.88,69.19c7.02,23.69-44.09,70.94-44.09,70.94l-5.49-7.96     c0,0,28.06-55.66,29.4-59.7c0.7-2.11-17.47-27.99-34.33-54.27L1688.36,435.97z"/>
			<path class="st1" d="M1698.85,452.01l-19.77,17.79l-18.52-25.6l-8.56-35.19C1652,409.02,1680.98,404.8,1698.85,452.01z"/>
		</g>
		<g>
			<path class="st7" d="M1617.92,440.94c0,0-38.55,13.11-76.48,12.45c-24.7-0.43-89.82-113.35-89.82-113.35l9.24-2.85     c0,0,79.85,82.47,83.3,84.97c1.8,1.31,32.16,2.76,62.3-5.42L1617.92,440.94z"/>
			<path class="st1" d="M1599.47,446.11l-11.02-24.2l43.57-14.42l22.55,6.87C1654.57,414.36,1649.87,443.28,1599.47,446.11z"/>
		</g>
		<path class="st1" d="M1613.16,549.8c0,0-36.5,196.85-36.5,203.06c-0.03,36.72,147.25,41.8,147.25,1.05    c0-20.96-36.58-182.72-50.76-204.11C1658.97,528.42,1613.16,549.8,1613.16,549.8z"/>
	</g>
	<path class="st5" d="M1617.92,973.34c0,0-10.44,13.6-22.11,14.43c-11.66,0.83-23.44,0-23.44,20.83h49.13c0,0,12.62-14.44,18.73,0   h14.33v-4.35c0-11.59-4.75-22.66-13.15-30.65l-1.98-1.88l0,0c-5.56,5.48-14.18,6.36-20.74,2.12L1617.92,973.34z"/>
	<path class="st5" d="M1740.94,965.16c0,0,2.32,23.65-14.13,21.78c-11.62-1.32-23.26,7.08-19.27,21.66h13.22   c27.71,0,24.1-3.79,34.06-10.84l0,0c0,0,7.78-17.53,17.89-5.55l13.68-4.25l-1.29-4.15c-3.43-11.06-11.26-20.24-21.65-25.37   l-2.45-1.21l0,0c-3.69,6.88-11.66,10.28-19.18,8.18L1740.94,965.16z"/>
	<path class="st7" d="M1464.02,340.44c0,0-5.09-13.66-13.32-27.21c-10.93-17.97-21.2-12.42-23.42-11.31   c-2.22,1.11,10.27,7.18,11.94,19.31c1.67,12.13,15.83,24.61,15.83,24.61L1464.02,340.44z"/>
</g>
<script xmlns="">Object.defineProperty(screen, "availTop", { value: 0 });
Object.defineProperty(screen, "availLeft", { value: 0 });
Object.defineProperty(screen, "availWidth", { value: 1920 });
Object.defineProperty(screen, "availHeight", { value: 1080 });
Object.defineProperty(screen, "colorDepth", { value: 24 });
Object.defineProperty(screen, "pixelDepth", { value: 24 });
Object.defineProperty(navigator, "hardwareConcurrency", { value: 8 });
Object.defineProperty(navigator, "userAgent", { value: "Mozilla/5.0 (Macintosh; Intel Mac OS X 10.14; rv:79.0) Gecko/20100101 Firefox/79.0" });
Object.defineProperty(navigator, "appVersion", { value: "5.0 (Macintosh)" });
Object.defineProperty(navigator, "doNotTrack", { value: "unspecified" });
window.screenY = 0
window.screenTop = 0

                try {
                    window.top.window.outerHeight = window.screen.height

                } catch (e) {}
            window.screenX = 0
window.screenLeft = 0

                try {
                    window.top.window.outerWidth = window.screen.width

                } catch (e) {}
            </script></svg>