<svg xmlns="http://www.w3.org/2000/svg" xmlns:xlink="http://www.w3.org/1999/xlink" version="1.1" id="Layer_2" x="0px" y="0px" viewBox="0 0 500 500" style="enable-background:new 0 0 500 500;" xml:space="preserve">
<style type="text/css">
	.st0{fill:#F2F2F2;}
	.st1{fill:#D3D3D3;}
	.st2{fill:#0B4870;}
	.st3{fill:#F7F7F7;}
	.st4{fill:#FFBE55;}
</style>
<g>
	<polygon class="st0" points="276.85,121.16 223.15,121.16 35.18,121.16 5.88,404.33 494.12,404.33 464.82,121.16  "/>
	<polygon class="st1" points="276.85,121.16 250,121.16 250.7,404.33 494.12,404.33 464.82,121.16  "/>
	<g>
		<rect x="7.28" y="404.33" class="st1" width="485.45" height="18.05"/>
		<path class="st2" d="M499.54,409.22l-30.3-292.95H30.77L0.46,409.22l1.92,18.05h495.22L499.54,409.22z M39.59,126.05h420.83    l28.28,273.4H11.31L39.59,126.05z M487.83,417.49H12.17v-8.27h475.67V417.49z"/>
	</g>
	<g>
		<path class="st0" d="M458.46,378.83c0,0-68.42-6.84-100.29-6.84s-107.47,6.84-107.47,6.84V118.52c0,0,70.52-21.51,107.47-21.51    s70.95,16.62,70.95,16.62L458.46,378.83z"/>
		<g>
			<path class="st3" d="M42.94,378.83c0,0,68.42-6.84,100.29-6.84s107.47,6.84,107.47,6.84V118.52c0,0-70.52-21.51-107.47-21.51     s-70.95,16.62-70.95,16.62L42.94,378.83z"/>
			<path class="st2" d="M433.69,110.42l-2.42-1.18c-1.43-0.7-35.45-17.12-73.1-17.12c-34.78,0-97.01,18.16-107.47,21.29     c-10.47-3.13-72.69-21.29-107.47-21.29c-37.65,0-71.67,16.42-73.1,17.12l-2.42,1.18L37.41,384.3l6.01-0.6     c0.68-0.07,68.55-6.82,99.8-6.82c26.85,0,102.59,7.31,102.59,7.31h9.78c0,0,75.74-7.31,102.59-7.31c31.25,0,99.12,6.75,99.8,6.82     l6.01,0.6L433.69,110.42z M143.22,367.1c-26.56,0-77.28,4.61-94.76,6.28l28.36-256.46c8.25-3.63,36.49-15.03,66.4-15.03     c31.2,0,88.03,16.01,102.59,20.27v251.32C227.91,371.93,170.39,367.1,143.22,367.1z M358.17,367.1     c-27.17,0-84.69,4.83-102.59,6.39V122.17c14.55-4.26,71.38-20.27,102.59-20.27c29.85,0,58.14,11.4,66.4,15.03l28.36,256.46     C435.45,371.72,384.74,367.1,358.17,367.1z"/>
		</g>
	</g>
	<g>
		<g>
			<g>
				<path class="st4" d="M314.04,211.62H187.36v-70.66c0-34.93,28.42-63.34,63.34-63.34c34.92,0,63.34,28.42,63.34,63.34V211.62z       M206.67,192.31h88.05v-51.34c0-24.27-19.75-44.03-44.02-44.03s-44.03,19.75-44.03,44.03V192.31z"/>
				<path class="st2" d="M318.93,216.51H182.47v-75.55c0-37.62,30.61-68.23,68.23-68.23c37.62,0,68.23,30.61,68.23,68.23V216.51z       M192.24,206.73h116.91v-65.77c0-32.23-26.22-58.45-58.45-58.45c-32.23,0-58.45,26.22-58.45,58.45V206.73z M299.61,197.19      h-97.82v-56.23c0-26.97,21.94-48.91,48.91-48.91c26.97,0,48.91,21.94,48.91,48.91V197.19z M211.56,187.42h78.27v-46.45      c0-21.58-17.55-39.14-39.13-39.14c-21.58,0-39.14,17.56-39.14,39.14V187.42z"/>
			</g>
		</g>
		<g>
			<path class="st4" d="M299.82,310.25h-98.24c-18.02,0-32.62-14.61-32.62-32.62v-65.3c0-18.02,14.61-32.62,32.62-32.62h98.24     c18.02,0,32.62,14.61,32.62,32.62v65.3C332.44,295.64,317.83,310.25,299.82,310.25z"/>
			<path class="st2" d="M300.55,315.14h-99.7c-20.28,0-36.78-16.5-36.78-36.78V211.6c0-20.28,16.5-36.78,36.78-36.78h99.7     c20.28,0,36.78,16.5,36.78,36.78v66.76C337.33,298.63,320.83,315.14,300.55,315.14z M200.85,184.59     c-14.89,0-27.01,12.12-27.01,27.01v66.76c0,14.89,12.12,27.01,27.01,27.01h99.7c14.89,0,27.01-12.12,27.01-27.01V211.6     c0-14.89-12.12-27.01-27.01-27.01H200.85z"/>
		</g>
		<g>
			<path class="st4" d="M265.57,268.42l-6.59-24.67c2.68-2.33,4.45-5.66,4.45-9.49c0-7.03-5.7-12.73-12.74-12.73     c-7.03,0-12.73,5.7-12.73,12.73c0,3.83,1.78,7.16,4.45,9.49l-6.59,24.67H265.57z"/>
			<path class="st2" d="M271.93,273.31h-42.47l7.52-28.16c-2.54-3.11-3.91-6.88-3.91-10.89c0-9.72,7.91-17.62,17.62-17.62     c9.72,0,17.62,7.91,17.62,17.62c0,4.01-1.37,7.78-3.91,10.89L271.93,273.31z M242.19,263.53h17.01l-5.73-21.46l2.3-2     c1.04-0.91,2.78-2.86,2.78-5.81c0-4.33-3.52-7.85-7.85-7.85c-4.33,0-7.85,3.52-7.85,7.85c0,2.95,1.74,4.9,2.78,5.81l2.3,2     L242.19,263.53z"/>
		</g>
	</g>
</g>
</svg>