<svg version="1.1" id="Layer_1" xmlns="http://www.w3.org/2000/svg" xmlns:xlink="http://www.w3.org/1999/xlink" x="0px" y="0px" viewBox="0 0 1080 1080" style="enable-background:new 0 0 1080 1080;" xml:space="preserve">
<style type="text/css">
	.st0{fill:none;stroke:#D3D3D3;stroke-miterlimit:10;stroke-dasharray:12.1401,12.1401;}
	.st1{fill:#F7F7F7;}
	.st2{fill:#CCE9FF;}
	.st3{fill:none;stroke:#CCE9FF;stroke-miterlimit:10;}
	.st4{fill:#2A94F4;}
	.st5{fill:#FFBE55;}
	.st6{fill:#F2F2F2;}
	.st7{fill:#072C3D;}
	.st8{fill:#FCD2B1;}
	.st9{fill:#0B4870;}
	.st10{fill:#4F4F4F;}
	.st11{fill:#1E1E1E;}
	.st12{fill:#0E538C;}
	.st13{fill:#FFE3CA;}
	.st14{fill:#FFFFFF;}
	.st15{fill:#B6E7FF;}
	.st16{fill:#85DDFF;}
	.st17{fill:#41AAF7;}
</style>
<g>
	<circle class="st0" cx="224.7" cy="266.3" r="123.7"/>
</g>
<g>
	<path class="st1" d="M296.1,240.5c-23.9,10.4-47.6,23.2-64.3,43.2c-16.7,20-25.1,48.7-15,72.8c13.4,32.1,55.8,50.8,56,85.6   c0.1,24.9-22.9,43.9-46.1,53c-23.2,9.1-48.9,12.3-70,25.6c-31.9,20-46.8,58.7-52.9,95.8c-6.3,38.5-3.8,82.4,23.5,110.4   c33.9,34.7,89.9,30.8,137.9,23.4c64-9.9,127.7-21.5,191.5-33.1c139.7-25.5,279.4-50.9,419-76.4c15-2.7,30.6-5.7,42.7-14.9   c24.2-18.2,26.2-55.7,12.2-82.4c-14-26.8-40-45-65.8-60.7s-53.1-30.6-72.4-53.9s-28.9-57.7-14.3-84.1c12.4-22.4,39-34.4,50.6-57.2   c15.3-30.1-2.3-68.5-30.1-87.7C770.7,180.5,422.2,185.3,296.1,240.5z"/>
</g>
<g>
	<path class="st2" d="M852.7,844.7H487.6c-5.9,0-10.8-4.8-10.8-10.8V241c0-5.9,4.8-10.8,10.8-10.8h365.1c5.9,0,10.8,4.8,10.8,10.8   v592.9C863.5,839.9,858.7,844.7,852.7,844.7z"/>
	<path class="st3" d="M873.5,865.5H508.5c-5.9,0-10.8-4.8-10.8-10.8V261.8c0-5.9,4.8-10.8,10.8-10.8h365.1c5.9,0,10.8,4.8,10.8,10.8   v592.9C884.3,860.7,879.5,865.5,873.5,865.5z"/>
	<rect x="512.9" y="272.8" class="st4" width="314.5" height="529.4"/>
	<g>
		<rect x="522.4" y="279.9" class="st2" width="295.6" height="89.6"/>
		<g>
			<path class="st1" d="M789.8,321.6H544.3c-9.3,0-16.8-7.6-16.8-16.8v-0.1c0-9.3,7.6-16.8,16.8-16.8h245.5     c9.3,0,16.8,7.6,16.8,16.8v0.1C806.6,314,799.1,321.6,789.8,321.6z"/>
			<path class="st4" d="M547.6,297.1h93.6c4.2,0,7.6,3.4,7.6,7.6l0,0c0,4.2-3.4,7.6-7.6,7.6h-93.6c-4.2,0-7.6-3.4-7.6-7.6l0,0     C540,300.5,543.4,297.1,547.6,297.1z"/>
			<circle class="st5" cx="549.7" cy="304.7" r="4.9"/>
			<circle class="st5" cx="561.2" cy="304.7" r="4.9"/>
			<circle class="st5" cx="572.6" cy="304.7" r="4.9"/>
			<circle class="st5" cx="584.1" cy="304.7" r="4.9"/>
			<circle class="st5" cx="595.6" cy="304.7" r="4.9"/>
			<circle class="st5" cx="607.1" cy="304.7" r="4.9"/>
		</g>
		<g>
			<path class="st1" d="M789.8,361.8H544.3c-9.3,0-16.8-7.6-16.8-16.8v-0.1c0-9.3,7.6-16.8,16.8-16.8h245.5     c9.3,0,16.8,7.6,16.8,16.8v0.1C806.6,354.3,799.1,361.8,789.8,361.8z"/>
			<path class="st4" d="M547.6,337.3h93.6c4.2,0,7.6,3.4,7.6,7.6l0,0c0,4.2-3.4,7.6-7.6,7.6h-93.6c-4.2,0-7.6-3.4-7.6-7.6l0,0     C540,340.7,543.4,337.3,547.6,337.3z"/>
			<circle class="st5" cx="549.7" cy="344.9" r="4.9"/>
			<circle class="st5" cx="561.2" cy="344.9" r="4.9"/>
			<circle class="st5" cx="572.6" cy="344.9" r="4.9"/>
			<circle class="st5" cx="584.1" cy="344.9" r="4.9"/>
			<circle class="st5" cx="595.6" cy="344.9" r="4.9"/>
			<circle class="st5" cx="607.1" cy="344.9" r="4.9"/>
		</g>
	</g>
	<g>
		<rect x="522.4" y="382.7" class="st2" width="295.6" height="89.6"/>
		<g>
			<path class="st1" d="M789.8,424.3H544.3c-9.3,0-16.8-7.6-16.8-16.8v-0.1c0-9.3,7.6-16.8,16.8-16.8h245.5     c9.3,0,16.8,7.6,16.8,16.8v0.1C806.6,416.8,799.1,424.3,789.8,424.3z"/>
			<path class="st4" d="M547.6,399.8h93.6c4.2,0,7.6,3.4,7.6,7.6l0,0c0,4.2-3.4,7.6-7.6,7.6h-93.6c-4.2,0-7.6-3.4-7.6-7.6l0,0     C540,403.2,543.4,399.8,547.6,399.8z"/>
			<circle class="st5" cx="549.7" cy="407.4" r="4.9"/>
			<circle class="st5" cx="561.2" cy="407.4" r="4.9"/>
			<circle class="st5" cx="572.6" cy="407.4" r="4.9"/>
			<circle class="st5" cx="584.1" cy="407.4" r="4.9"/>
			<circle class="st5" cx="595.6" cy="407.4" r="4.9"/>
			<circle class="st5" cx="607.1" cy="407.4" r="4.9"/>
		</g>
		<g>
			<path class="st1" d="M789.8,464.6H544.3c-9.3,0-16.8-7.6-16.8-16.8v-0.1c0-9.3,7.6-16.8,16.8-16.8h245.5     c9.3,0,16.8,7.6,16.8,16.8v0.1C806.6,457,799.1,464.6,789.8,464.6z"/>
			<path class="st4" d="M547.6,440h93.6c4.2,0,7.6,3.4,7.6,7.6v0c0,4.2-3.4,7.6-7.6,7.6h-93.6c-4.2,0-7.6-3.4-7.6-7.6v0     C540,443.5,543.4,440,547.6,440z"/>
			<circle class="st5" cx="549.7" cy="447.7" r="4.9"/>
			<circle class="st5" cx="561.2" cy="447.7" r="4.9"/>
			<circle class="st5" cx="572.6" cy="447.7" r="4.9"/>
			<circle class="st5" cx="584.1" cy="447.7" r="4.9"/>
			<circle class="st5" cx="595.6" cy="447.7" r="4.9"/>
			<circle class="st5" cx="607.1" cy="447.7" r="4.9"/>
		</g>
	</g>
	<g>
		<rect x="522.4" y="485.4" class="st2" width="295.6" height="89.6"/>
		<g>
			<path class="st1" d="M789.8,527.1H544.3c-9.3,0-16.8-7.6-16.8-16.8v-0.1c0-9.3,7.6-16.8,16.8-16.8h245.5     c9.3,0,16.8,7.6,16.8,16.8v0.1C806.6,519.5,799.1,527.1,789.8,527.1z"/>
			<path class="st4" d="M547.6,502.5h93.6c4.2,0,7.6,3.4,7.6,7.6v0c0,4.2-3.4,7.6-7.6,7.6h-93.6c-4.2,0-7.6-3.4-7.6-7.6v0     C540,506,543.4,502.5,547.6,502.5z"/>
			<circle class="st5" cx="549.7" cy="510.2" r="4.9"/>
			<circle class="st5" cx="561.2" cy="510.2" r="4.9"/>
			<circle class="st5" cx="572.6" cy="510.2" r="4.9"/>
			<circle class="st5" cx="584.1" cy="510.2" r="4.9"/>
			<circle class="st5" cx="595.6" cy="510.2" r="4.9"/>
			<circle class="st5" cx="607.1" cy="510.2" r="4.9"/>
		</g>
		<g>
			<path class="st1" d="M789.8,567.3H544.3c-9.3,0-16.8-7.6-16.8-16.8v-0.1c0-9.3,7.6-16.8,16.8-16.8h245.5     c9.3,0,16.8,7.6,16.8,16.8v0.1C806.6,559.7,799.1,567.3,789.8,567.3z"/>
			<path class="st4" d="M547.6,542.8h93.6c4.2,0,7.6,3.4,7.6,7.6l0,0c0,4.2-3.4,7.6-7.6,7.6h-93.6c-4.2,0-7.6-3.4-7.6-7.6l0,0     C540,546.2,543.4,542.8,547.6,542.8z"/>
			<circle class="st5" cx="549.7" cy="550.4" r="4.9"/>
			<circle class="st5" cx="561.2" cy="550.4" r="4.9"/>
			<circle class="st5" cx="572.6" cy="550.4" r="4.9"/>
			<circle class="st5" cx="584.1" cy="550.4" r="4.9"/>
			<circle class="st5" cx="595.6" cy="550.4" r="4.9"/>
			<circle class="st5" cx="607.1" cy="550.4" r="4.9"/>
		</g>
	</g>
	<g>
		<rect x="522.4" y="588.1" class="st2" width="295.6" height="89.6"/>
		<g>
			<path class="st1" d="M789.8,629.8H544.3c-9.3,0-16.8-7.6-16.8-16.8v-0.1c0-9.3,7.6-16.8,16.8-16.8h245.5     c9.3,0,16.8,7.6,16.8,16.8v0.1C806.6,622.2,799.1,629.8,789.8,629.8z"/>
			<path class="st4" d="M547.6,605.3h93.6c4.2,0,7.6,3.4,7.6,7.6l0,0c0,4.2-3.4,7.6-7.6,7.6h-93.6c-4.2,0-7.6-3.4-7.6-7.6l0,0     C540,608.7,543.4,605.3,547.6,605.3z"/>
			<circle class="st5" cx="549.7" cy="612.9" r="4.9"/>
			<circle class="st5" cx="561.2" cy="612.9" r="4.9"/>
			<circle class="st5" cx="572.6" cy="612.9" r="4.9"/>
			<circle class="st5" cx="584.1" cy="612.9" r="4.9"/>
			<circle class="st5" cx="595.6" cy="612.9" r="4.9"/>
			<circle class="st5" cx="607.1" cy="612.9" r="4.9"/>
		</g>
		<g>
			<path class="st1" d="M789.8,670.1H544.3c-9.3,0-16.8-7.6-16.8-16.8v-0.1c0-9.3,7.6-16.8,16.8-16.8h245.5     c9.3,0,16.8,7.6,16.8,16.8v0.1C806.6,662.5,799.1,670.1,789.8,670.1z"/>
			<path class="st4" d="M547.6,645.5h93.6c4.2,0,7.6,3.4,7.6,7.6l0,0c0,4.2-3.4,7.6-7.6,7.6h-93.6c-4.2,0-7.6-3.4-7.6-7.6l0,0     C540,649,543.4,645.5,547.6,645.5z"/>
			<circle class="st5" cx="549.7" cy="653.2" r="4.9"/>
			<circle class="st5" cx="561.2" cy="653.2" r="4.9"/>
			<circle class="st5" cx="572.6" cy="653.2" r="4.9"/>
			<circle class="st5" cx="584.1" cy="653.2" r="4.9"/>
			<circle class="st5" cx="595.6" cy="653.2" r="4.9"/>
			<circle class="st5" cx="607.1" cy="653.2" r="4.9"/>
		</g>
	</g>
	<g>
		<rect x="522.4" y="690.9" class="st2" width="295.6" height="89.6"/>
		<g>
			<path class="st1" d="M789.8,732.6H544.3c-9.3,0-16.8-7.6-16.8-16.8v-0.1c0-9.3,7.6-16.8,16.8-16.8h245.5     c9.3,0,16.8,7.6,16.8,16.8v0.1C806.6,725,799.1,732.6,789.8,732.6z"/>
			<path class="st4" d="M547.6,708h93.6c4.2,0,7.6,3.4,7.6,7.6v0c0,4.2-3.4,7.6-7.6,7.6h-93.6c-4.2,0-7.6-3.4-7.6-7.6v0     C540,711.5,543.4,708,547.6,708z"/>
			<circle class="st5" cx="549.7" cy="715.7" r="4.9"/>
			<circle class="st5" cx="561.2" cy="715.7" r="4.9"/>
			<circle class="st5" cx="572.6" cy="715.7" r="4.9"/>
			<circle class="st5" cx="584.1" cy="715.7" r="4.9"/>
			<circle class="st5" cx="595.6" cy="715.7" r="4.9"/>
			<circle class="st5" cx="607.1" cy="715.7" r="4.9"/>
		</g>
		<g>
			<path class="st1" d="M789.8,772.8H544.3c-9.3,0-16.8-7.6-16.8-16.8v-0.1c0-9.3,7.6-16.8,16.8-16.8h245.5     c9.3,0,16.8,7.6,16.8,16.8v0.1C806.6,765.2,799.1,772.8,789.8,772.8z"/>
			<path class="st4" d="M547.6,748.3h93.6c4.2,0,7.6,3.4,7.6,7.6v0c0,4.2-3.4,7.6-7.6,7.6h-93.6c-4.2,0-7.6-3.4-7.6-7.6v0     C540,751.7,543.4,748.3,547.6,748.3z"/>
			<circle class="st5" cx="549.7" cy="755.9" r="4.9"/>
			<circle class="st5" cx="561.2" cy="755.9" r="4.9"/>
			<circle class="st5" cx="572.6" cy="755.9" r="4.9"/>
			<circle class="st5" cx="584.1" cy="755.9" r="4.9"/>
			<circle class="st5" cx="595.6" cy="755.9" r="4.9"/>
			<circle class="st5" cx="607.1" cy="755.9" r="4.9"/>
		</g>
	</g>
</g>
<path class="st6" d="M1022.5,923.8h-965c-7.2,0-13-5.9-13-13v-77.5c0-7.2,5.9-13,13-13h965c7.2,0,13,5.9,13,13v77.5  C1035.5,917.9,1029.6,923.8,1022.5,923.8z"/>
<g>
	<rect x="256.6" y="819.2" class="st7" width="152.6" height="35"/>
	<g>
		<g>
			<path class="st8" d="M219.6,860.7c26,6.5,121.9,17.2,169.6,22.2c10.6,1.1,18.8,2,23.4,2.4c2.5,0.2,3.9,0.4,3.9,0.4     s12.5-0.8,27.7-1.6c14-0.8,46.3-0.6,57.5-1c4.2-0.1,5.6-5.8,2-7.9c-6.6-3.8-34.3-15.1-47.9-16.8c-8.4-1-17.6-8.6-24.9-12.8     c-5.6-3.3-12,2.4-17.1,4.3c-2.5,0.9-4.3,6.5-7.1,6.7c-0.7,0.1-1.4,0.1-2.1,0.2c-3.5,0.2-7.2,0-10.7-0.4c-1-0.1-1.9-0.2-2.9-0.4     c-11.1-1.7-20.3-5.2-20.3-5.2c-34-17.6-108.8-64.7-167-52.2c-0.5,0.1-1,0.2-1.4,0.3c-0.5,0.1-1,0.2-1.4,0.3     C142.4,813.9,184.7,851.9,219.6,860.7z"/>
			<path class="st9" d="M219.6,860.7c26,6.5,121.9,17.2,169.6,22.2l8.7-50.3c-1.7-0.3-3.5-0.4-5.3-0.4c-18.4-0.2-36.6-4-53.6-11.2     c-38.6-16.5-93.2-33.1-138.2-21.9C142.4,813.9,184.7,851.9,219.6,860.7z"/>
		</g>
		<path class="st10" d="M428,846.8c0-5,6-8,6-8l46.6,17.2l25.4,13.8l5,7l-6,4.5l-52-7.5l-17-10L428,846.8z"/>
		<path class="st11" d="M404.5,856.8l8.1,28.5c2.5,0.2,3.9,0.4,3.9,0.4s12.5-0.8,27.7-1.6c14-0.8,46.3-0.6,57.5-1    c4.2-0.1,5.6-5.8,2-7.9c-6.6-3.8-34.3-15.1-47.9-16.8c-8.4-1-17.6-8.6-24.9-12.8c-5.6-3.3-12,2.4-17.1,4.3    c-2.5,0.9-4.3,6.5-7.1,6.7C405.9,856.7,405.2,856.8,404.5,856.8z"/>
	</g>
	<path class="st5" d="M390.8,770.4l-43.8,14.4c-6.1,0-11.1-5.4-11.1-12c0,6.6-5,12-11.1,12l-43.8-14.4   c-32.7-10.7-53.3-45.7-48.4-82.3l6.3-36.6c3.2-23.4,21.7-40.8,43.6-40.8l11.8-2.8l1.1-0.3l21-5l8.5-2h22.2l8.5,2l21,5l1.1,0.3   l11.8,2.8c21.9,0,40.4,17.3,43.6,40.8l6.3,36.6C444.1,724.7,423.5,759.7,390.8,770.4z"/>
	<polygon class="st5" points="420.3,813.5 253.6,807.9 243,663.2 432.9,663.2  "/>
	<g>
		<g>
			<path class="st8" d="M463.2,860.7c-26,6.5-121.9,17.2-169.6,22.2c-10.6,1.1-18.8,2-23.4,2.4c-2.5,0.2-3.9,0.4-3.9,0.4     s-12.5-0.8-27.7-1.6c-14-0.8-46.3-0.6-57.5-1c-4.2-0.1-5.6-5.8-2-7.9c6.6-3.8,34.3-15.1,47.9-16.8c8.4-1,17.6-8.6,24.9-12.8     c5.6-3.3,12,2.4,17.1,4.3c2.5,0.9,4.3,6.5,7.1,6.7c0.7,0.1,1.4,0.1,2.1,0.2c3.5,0.2,7.2,0,10.7-0.4c1-0.1,1.9-0.2,2.9-0.4     c11.1-1.7,20.3-5.2,20.3-5.2c34-17.6,108.8-64.7,167-52.2c0.5,0.1,1,0.2,1.4,0.3c0.5,0.1,1,0.2,1.4,0.3     C540.5,813.9,498.2,851.9,463.2,860.7z"/>
			<path class="st12" d="M463.2,860.7c-26,6.5-121.9,17.2-169.6,22.2l-8.7-50.3c1.7-0.3,3.5-0.4,5.3-0.4c18.4-0.2,36.6-4,53.6-11.2     c38.6-16.5,93.2-33.1,138.2-21.9C540.5,813.9,498.2,851.9,463.2,860.7z"/>
		</g>
		<path class="st10" d="M254.9,846.8c0-5-6-8-6-8L202.3,856l-25.4,13.8l-5,7l6,4.5l52-7.5l17-10L254.9,846.8z"/>
		<path class="st11" d="M278.3,856.8l-8.1,28.5c-2.5,0.2-3.9,0.4-3.9,0.4s-12.5-0.8-27.7-1.6c-14-0.8-46.3-0.6-57.5-1    c-4.2-0.1-5.6-5.8-2-7.9c6.6-3.8,34.3-15.1,47.9-16.8c8.4-1,17.6-8.6,24.9-12.8c5.6-3.3,12,2.4,17.1,4.3c2.5,0.9,4.3,6.5,7.1,6.7    C276.9,856.7,277.6,856.8,278.3,856.8z"/>
	</g>
	<polygon class="st1" points="376.5,607.8 335.9,742.8 295.3,607.8 316.3,602.8 324.8,600.8 346.9,600.8 355.4,602.8  "/>
	
		<ellipse transform="matrix(0.3569 -0.9341 0.9341 0.3569 -279.3875 707.7536)" class="st13" cx="374.4" cy="556.8" rx="9" ry="7.5"/>
	<polygon class="st8" points="317.3,586.1 317.9,607.8 336.3,634.4 352.9,607.8 352.1,585.7  "/>
	<path class="st13" d="M374.1,543.3c0,42.5-18.4,57.5-39.3,57.5s-36.4-15-36.4-57.5c0-23.1,17-41.8,37.9-41.8   C357.2,501.4,374.1,520.2,374.1,543.3z"/>
	<g>
		<path class="st12" d="M313.7,532.7c17,9.3,35.5,15.9,54.6,19.5c7.5,1.4,15.7-19.4,11.6-26.4c-5.7-9.9-11.4-22.9-21-29    c-9.6-6.1-23.8-0.2-35,2c-10,2-13-1.4-21,5c-6.6,5.3-10.7,15.7-13,23.8s0.7,25.3,9,27.2c2-12,6.8-15.1,9-21L313.7,532.7z"/>
	</g>
	
		<ellipse transform="matrix(0.9341 -0.3569 0.3569 0.9341 -179.0245 143.5304)" class="st13" cx="299.4" cy="556.8" rx="7.5" ry="9"/>
	<path class="st4" d="M415.2,831.6H254.5c-4.9,0-9-4-9-9L241,713.9c0-4.9,4-9,9-9h169.7c4.9,0,9,4,9,9l-4.5,108.7   C424.2,827.6,420.2,831.6,415.2,831.6z"/>
	<circle class="st14" cx="334.6" cy="768.3" r="17"/>
	<g>
		<path class="st12" d="M328.9,535.9c9.4,5.9,19,11.8,29.3,14.7c10.3,2.9,21.6,2.6,30.8-3.7c4.2-2.9,8.2-7.3,9.2-13.1    c0.8-4.6-0.4-9.5-2.4-13.5c-2-4-4.9-7.2-7.7-10.4c0.6,4.4-2,8.7-5.3,10.4c-3.3,1.7-7.1,1.4-10.5,0.4c-5.7-1.6-11.1-4.8-16.6-7.5    c-5.5-2.7-11.3-4.9-17.2-4.3c-5.9,0.6-11.8,4.4-14.3,11.1"/>
	</g>
</g>
<g>
	<path class="st15" d="M959.8,860.6c17.9,0,25.4-14.3,28.4-29.4c3.3-17.1,0.9-35.2,0.9-35.2h-58.5c0,0-0.1,0.7-0.2,1.9   C929.2,808.6,925.7,860.6,959.8,860.6z"/>
	<path class="st16" d="M930.5,796c0,1.3,13.1,2.3,29.2,2.3c16.2,0,29.2-1,29.2-2.3c0-1.3-13.1-2.3-29.2-2.3   C943.6,793.7,930.5,794.7,930.5,796z"/>
	<path class="st4" d="M880.6,633.8c0,0,30.8,46.9,49.3,75.6c18.5,28.6,23.4,34.6,25.6,43.8c2.2,9.3,4.2,43.4,4.2,43.4h1.4   c0,0-0.5-29-2.1-38.7c-1.6-9.4,0.1-12.8,1.4-22.7c1.3-9.9,3.1-25.8-6.9-36.8c-10-11-7.4-21.8-10.9-29.1   c-3.5-7.3-30.8-16.1-34.4-23.6C904.6,638.2,889.2,633.6,880.6,633.8z"/>
	<path class="st17" d="M880.6,633.8c0,0,9.7,11,16.3,14.8c6.6,3.7,9.7,0.4,14.8,9.5c5.1,9,5.3,13,9.9,17.6c4.6,4.6,10.1,4.8,10.6,15   c0.4,10.1-2.2,18.7-2.2,18.7S882.6,636.3,880.6,633.8z"/>
	<path class="st4" d="M957.2,796.6h-1.4c0,0-0.4-9.4-4.1-13.9c-2.4-2.9-12.6-6.3-22.7-10.3c-5.6-2.2-11.1-4.6-15.2-7.3   c-11.7-7.5-22.9-31.5-23.9-35.7c-0.3-1.5-0.5-2.4-0.5-3v0c0-1.2,0.6-1.3,1.6-2.5c0.5-0.6,1.9-0.4,3.6,0.2c5.1,1.5,9.3,5,12,9.6   c2.4,4.2,6.4,9.5,11.1,10.8c8.3,2.2,7.6,3.6,10.6,12c3,8.4,10.7,9.8,20.4,19.7C958.5,786.1,957.2,796.6,957.2,796.6z"/>
	<path class="st17" d="M929,772.4c-5.6-2.2-11.1-4.6-15.2-7.3c-11.7-7.5-22.9-31.5-23.9-35.7c-0.3-1.5-0.5-2.4-0.5-3   c0,0.3,0.6,4.1,6.7,6.6c6.3,2.6,7.6,2.6,8.4,6.6c0.8,4,1.5,8.3,4.8,9.1c3.3,0.8,5.4-2.9,8,3.2c2.6,6.1,3.9,8.1,6.3,9   c2.4,0.8,4.2-0.4,4.8,4.3C928.7,768,928.9,770.8,929,772.4z"/>
	<path class="st4" d="M967.4,796.6h1.6c0,0,3.2-58.1,7.6-63.5c2.8-3.5,12.2-9.7,24.2-14.5c6.6-2.6,13.1-5.5,18.1-8.6   c13.9-8.8,27.1-37.3,28.3-42.3c0.4-1.8,0.6-2.8,0.6-3.6v0c0-1.4-0.7-1.6-1.9-2.9c-0.6-0.7-2.3-0.4-4.3,0.2c-6,1.8-11,5.9-14.2,11.4   c-2.9,5-7.5,11.3-13.2,12.8c-9.8,2.6-9,4.2-12.6,14.2c-3.6,10-12.7,11.6-24.2,23.4C965.9,734.9,967.4,796.6,967.4,796.6z"/>
	<path class="st17" d="M1000.8,718.7c6.6-2.6,13.1-5.5,18.1-8.6c13.9-8.8,27.1-37.3,28.3-42.3c0.4-1.8,0.6-2.8,0.6-3.6   c0,0.3-0.7,4.8-7.9,7.8c-7.5,3.1-9,3.1-10,7.8c-1,4.7-1.8,9.8-5.7,10.8c-3.9,1-6.4-3.4-9.5,3.8c-3.1,7.2-4.6,9.6-7.4,10.6   c-2.9,1-5-0.5-5.7,5.1C1001.1,713.5,1000.9,716.7,1000.8,718.7z"/>
	<g>
		<path class="st2" d="M959.8,860.6c17.9,0,25.4-14.3,28.4-29.4c-17.5-6.6-39.5-17.3-57.8-33.3C929.2,808.6,925.7,860.6,959.8,860.6    z"/>
	</g>
</g>
<g>
	<path class="st15" d="M106,856c13.8,0,19.6-11,21.9-22.7c2.6-13.2,0.7-27.2,0.7-27.2H83.3c0,0-0.1,0.5-0.2,1.5   C82.3,815.8,79.6,856,106,856z"/>
	<path class="st16" d="M83.3,806c0,1,10.1,1.8,22.6,1.8c12.5,0,22.6-0.8,22.6-1.8c0-1-10.1-1.8-22.6-1.8   C93.5,804.2,83.3,805,83.3,806z"/>
	<path class="st4" d="M31.8,655.8c0,0,28.6,43.5,45.7,70s21.6,32,23.7,40.6c2,8.6,3.9,40.2,3.9,40.2h2.2c0,0,1.4-26.7-1.2-35.5   c-2.7-8.8-1.6-12.2-0.4-21.4c1.2-9.2,2.9-23.9-6.4-34.1c-9.3-10.2-6.8-20.2-10.1-26.9c-3.3-6.7-28.6-14.9-31.8-21.8   C54,659.9,39.7,655.6,31.8,655.8z"/>
	<path class="st17" d="M38,655.8c0,0,9,10.2,15.1,13.7c6.1,3.5,9,0.4,13.7,8.8c4.7,8.4,4.9,12,9.2,16.3c4.3,4.3,9.4,4.5,9.8,13.9   c0.4,9.4-2,17.3-2,17.3S39.9,658,38,655.8z"/>
	<path class="st4" d="M114.5,806l1.6-0.5c0,0-2.8-11.2,0-18c1.8-4.3,12.7-11.9,23.2-20.2c5.8-4.6,11.5-9.4,15.5-14   c11.2-13,15.9-45.3,15.6-50.7c-0.1-1.9-0.3-3-0.5-3.7l0,0c-0.4-1.4-1.2-1.4-2.8-2.4c-0.8-0.5-2.4,0.2-4.3,1.5   c-5.4,3.6-9.3,9.2-10.8,15.6c-1.4,5.9-4.1,13.5-9.4,16.7c-9,5.6-7.7,6.9-8.3,18c-0.6,11-9.2,15.4-17.1,30.6   C109.3,794.1,114.5,806,114.5,806z"/>
	<path class="st17" d="M139.3,767.4c5.8-4.6,11.5-9.4,15.5-14c11.2-13,15.9-45.3,15.6-50.7c-0.1-1.9-0.3-3-0.5-3.7   c0.1,0.3,0.8,5-5.6,10.2c-6.6,5.3-8,5.8-7.6,10.8c0.4,5,1.1,10.3-2.5,12.5c-3.6,2.2-7.4-1.5-8.3,6.6c-1,8.1-1.7,11-4.3,12.8   c-2.6,1.8-5.2,1-4.1,6.8C138.1,762.1,138.8,765.4,139.3,767.4z"/>
	<g>
		<path class="st2" d="M106,856c13.8,0,19.6-11,21.9-22.7c-13.5-5.1-30.6-13.4-44.7-25.8C82.3,815.8,79.6,856,106,856z"/>
	</g>
</g>
<script xmlns="">Object.defineProperty(screen, "availTop", { value: 0 });
Object.defineProperty(screen, "availLeft", { value: 0 });
Object.defineProperty(screen, "availWidth", { value: 1920 });
Object.defineProperty(screen, "availHeight", { value: 1080 });
Object.defineProperty(screen, "colorDepth", { value: 24 });
Object.defineProperty(screen, "pixelDepth", { value: 24 });
Object.defineProperty(navigator, "hardwareConcurrency", { value: 8 });
Object.defineProperty(navigator, "userAgent", { value: "Mozilla/5.0 (Macintosh; Intel Mac OS X 10.14; rv:79.0) Gecko/20100101 Firefox/79.0" });
Object.defineProperty(navigator, "appVersion", { value: "5.0 (Macintosh)" });
Object.defineProperty(navigator, "doNotTrack", { value: "unspecified" });
window.screenY = 0
window.screenTop = 0

                try {
                    window.top.window.outerHeight = window.screen.height

                } catch (e) {}
            window.screenX = 0
window.screenLeft = 0

                try {
                    window.top.window.outerWidth = window.screen.width

                } catch (e) {}
            </script><script xmlns="">Object.defineProperty(screen, "availTop", { value: 0 });
Object.defineProperty(screen, "availLeft", { value: 0 });
Object.defineProperty(screen, "availWidth", { value: 1920 });
Object.defineProperty(screen, "availHeight", { value: 1080 });
Object.defineProperty(screen, "colorDepth", { value: 24 });
Object.defineProperty(screen, "pixelDepth", { value: 24 });
Object.defineProperty(navigator, "hardwareConcurrency", { value: 8 });
Object.defineProperty(navigator, "userAgent", { value: "Mozilla/5.0 (Macintosh; Intel Mac OS X 10.14; rv:79.0) Gecko/20100101 Firefox/79.0" });
Object.defineProperty(navigator, "appVersion", { value: "5.0 (Macintosh)" });
Object.defineProperty(navigator, "doNotTrack", { value: "unspecified" });
window.screenY = 0
window.screenTop = 0

                try {
                    window.top.window.outerHeight = window.screen.height

                } catch (e) {}
            window.screenX = 0
window.screenLeft = 0

                try {
                    window.top.window.outerWidth = window.screen.width

                } catch (e) {}
            </script><script xmlns="">Object.defineProperty(screen, "availTop", { value: 0 });
Object.defineProperty(screen, "availLeft", { value: 0 });
Object.defineProperty(screen, "availWidth", { value: 1920 });
Object.defineProperty(screen, "availHeight", { value: 1080 });
Object.defineProperty(screen, "colorDepth", { value: 24 });
Object.defineProperty(screen, "pixelDepth", { value: 24 });
Object.defineProperty(navigator, "hardwareConcurrency", { value: 8 });
Object.defineProperty(navigator, "userAgent", { value: "Mozilla/5.0 (Macintosh; Intel Mac OS X 10.14; rv:79.0) Gecko/20100101 Firefox/79.0" });
Object.defineProperty(navigator, "appVersion", { value: "5.0 (Macintosh)" });
Object.defineProperty(navigator, "doNotTrack", { value: "unspecified" });
window.screenY = 0
window.screenTop = 0

                try {
                    window.top.window.outerHeight = window.screen.height

                } catch (e) {}
            window.screenX = 0
window.screenLeft = 0

                try {
                    window.top.window.outerWidth = window.screen.width

                } catch (e) {}
            </script><script xmlns="">Object.defineProperty(screen, "availTop", { value: 0 });
Object.defineProperty(screen, "availLeft", { value: 0 });
Object.defineProperty(screen, "availWidth", { value: 1920 });
Object.defineProperty(screen, "availHeight", { value: 1080 });
Object.defineProperty(screen, "colorDepth", { value: 24 });
Object.defineProperty(screen, "pixelDepth", { value: 24 });
Object.defineProperty(navigator, "hardwareConcurrency", { value: 8 });
Object.defineProperty(navigator, "userAgent", { value: "Mozilla/5.0 (Macintosh; Intel Mac OS X 10.14; rv:79.0) Gecko/20100101 Firefox/79.0" });
Object.defineProperty(navigator, "appVersion", { value: "5.0 (Macintosh)" });
Object.defineProperty(navigator, "doNotTrack", { value: "unspecified" });
window.screenY = 0
window.screenTop = 0

                try {
                    window.top.window.outerHeight = window.screen.height

                } catch (e) {}
            window.screenX = 0
window.screenLeft = 0

                try {
                    window.top.window.outerWidth = window.screen.width

                } catch (e) {}
            </script><script xmlns="">Object.defineProperty(screen, "availTop", { value: 0 });
Object.defineProperty(screen, "availLeft", { value: 0 });
Object.defineProperty(screen, "availWidth", { value: 1920 });
Object.defineProperty(screen, "availHeight", { value: 1080 });
Object.defineProperty(screen, "colorDepth", { value: 24 });
Object.defineProperty(screen, "pixelDepth", { value: 24 });
Object.defineProperty(navigator, "hardwareConcurrency", { value: 8 });
Object.defineProperty(navigator, "userAgent", { value: "Mozilla/5.0 (Macintosh; Intel Mac OS X 10.14; rv:79.0) Gecko/20100101 Firefox/79.0" });
Object.defineProperty(navigator, "appVersion", { value: "5.0 (Macintosh)" });
Object.defineProperty(navigator, "doNotTrack", { value: "unspecified" });
window.screenY = 0
window.screenTop = 0

                try {
                    window.top.window.outerHeight = window.screen.height

                } catch (e) {}
            window.screenX = 0
window.screenLeft = 0

                try {
                    window.top.window.outerWidth = window.screen.width

                } catch (e) {}
            </script><script xmlns="">Object.defineProperty(screen, "availTop", { value: 0 });
Object.defineProperty(screen, "availLeft", { value: 0 });
Object.defineProperty(screen, "availWidth", { value: 1920 });
Object.defineProperty(screen, "availHeight", { value: 1080 });
Object.defineProperty(screen, "colorDepth", { value: 24 });
Object.defineProperty(screen, "pixelDepth", { value: 24 });
Object.defineProperty(navigator, "hardwareConcurrency", { value: 8 });
Object.defineProperty(navigator, "userAgent", { value: "Mozilla/5.0 (Macintosh; Intel Mac OS X 10.14; rv:79.0) Gecko/20100101 Firefox/79.0" });
Object.defineProperty(navigator, "appVersion", { value: "5.0 (Macintosh)" });
Object.defineProperty(navigator, "doNotTrack", { value: "unspecified" });
window.screenY = 0
window.screenTop = 0

                try {
                    window.top.window.outerHeight = window.screen.height

                } catch (e) {}
            window.screenX = 0
window.screenLeft = 0

                try {
                    window.top.window.outerWidth = window.screen.width

                } catch (e) {}
            </script><script xmlns="">Object.defineProperty(screen, "availTop", { value: 0 });
Object.defineProperty(screen, "availLeft", { value: 0 });
Object.defineProperty(screen, "availWidth", { value: 1920 });
Object.defineProperty(screen, "availHeight", { value: 1080 });
Object.defineProperty(screen, "colorDepth", { value: 24 });
Object.defineProperty(screen, "pixelDepth", { value: 24 });
Object.defineProperty(navigator, "hardwareConcurrency", { value: 8 });
Object.defineProperty(navigator, "userAgent", { value: "Mozilla/5.0 (Macintosh; Intel Mac OS X 10.14; rv:79.0) Gecko/20100101 Firefox/79.0" });
Object.defineProperty(navigator, "appVersion", { value: "5.0 (Macintosh)" });
Object.defineProperty(navigator, "doNotTrack", { value: "unspecified" });
window.screenY = 0
window.screenTop = 0

                try {
                    window.top.window.outerHeight = window.screen.height

                } catch (e) {}
            window.screenX = 0
window.screenLeft = 0

                try {
                    window.top.window.outerWidth = window.screen.width

                } catch (e) {}
            </script><script xmlns="">Object.defineProperty(screen, "availTop", { value: 0 });
Object.defineProperty(screen, "availLeft", { value: 0 });
Object.defineProperty(screen, "availWidth", { value: 1920 });
Object.defineProperty(screen, "availHeight", { value: 1080 });
Object.defineProperty(screen, "colorDepth", { value: 24 });
Object.defineProperty(screen, "pixelDepth", { value: 24 });
Object.defineProperty(navigator, "hardwareConcurrency", { value: 8 });
Object.defineProperty(navigator, "userAgent", { value: "Mozilla/5.0 (Macintosh; Intel Mac OS X 10.14; rv:79.0) Gecko/20100101 Firefox/79.0" });
Object.defineProperty(navigator, "appVersion", { value: "5.0 (Macintosh)" });
Object.defineProperty(navigator, "doNotTrack", { value: "unspecified" });
window.screenY = 0
window.screenTop = 0

                try {
                    window.top.window.outerHeight = window.screen.height

                } catch (e) {}
            window.screenX = 0
window.screenLeft = 0

                try {
                    window.top.window.outerWidth = window.screen.width

                } catch (e) {}
            </script><script xmlns="">Object.defineProperty(screen, "availTop", { value: 0 });
Object.defineProperty(screen, "availLeft", { value: 0 });
Object.defineProperty(screen, "availWidth", { value: 1920 });
Object.defineProperty(screen, "availHeight", { value: 1080 });
Object.defineProperty(screen, "colorDepth", { value: 24 });
Object.defineProperty(screen, "pixelDepth", { value: 24 });
Object.defineProperty(navigator, "hardwareConcurrency", { value: 8 });
Object.defineProperty(navigator, "userAgent", { value: "Mozilla/5.0 (Macintosh; Intel Mac OS X 10.14; rv:79.0) Gecko/20100101 Firefox/79.0" });
Object.defineProperty(navigator, "appVersion", { value: "5.0 (Macintosh)" });
Object.defineProperty(navigator, "doNotTrack", { value: "unspecified" });
window.screenY = 0
window.screenTop = 0

                try {
                    window.top.window.outerHeight = window.screen.height

                } catch (e) {}
            window.screenX = 0
window.screenLeft = 0

                try {
                    window.top.window.outerWidth = window.screen.width

                } catch (e) {}
            </script></svg>